<svg xmlns="http://www.w3.org/2000/svg" width="170.59" height="165.76"><defs><style>.cls-2{fill:#19947b}.cls-3{fill:#64bfa4}.cls-7{fill:#cfe1f3}.cls-9{fill:#2273ca}.cls-10{fill:#fff}.cls-14{fill:#8dd8c1}.cls-16{fill:#fabc04}.cls-19{fill:#132838}.cls-23{fill:#f79b72}</style></defs><g id="Layer_2" data-name="Layer 2"><g id="OBJECTS"><path d="M10.9 157.71c0 4.44 32.84 8 73.36 8s73.34-3.61 73.34-8-32.84-8.05-73.34-8.05-73.36 3.6-73.36 8.05z" fill="#e8f0f7"/><path class="cls-2" d="M126.22 55a77.23 77.23 0 0 1 24.62-38.59l.52.62a76.41 76.41 0 0 0-24.18 38.23z"/><path class="cls-2" d="M128.37 34.06c-1.56-2.77-.05-6.59-.05-6.59s4.05.69 5.61 3.46 0 6.59 0 6.59-3.99-.68-5.56-3.46zm12.31-2.13c3.18-.2 5.95 2.82 5.95 2.82s-2.37 3.35-5.55 3.55-6-2.83-6-2.83 2.42-3.34 5.6-3.54zm4.42-7.25c2.71-.17 5.08 2.4 5.08 2.4s-2 2.86-4.74 3-5.08-2.41-5.08-2.41 2.03-2.82 4.74-2.99zm-9.1-.12c-.91-2.43.79-5.29.79-5.29s3.16 1.05 4.06 3.47-.79 5.29-.79 5.29-3.14-1.03-4.06-3.47zm7.32-6.56c-.77-2 .66-4.45.66-4.45s2.66.89 3.42 2.93-.67 4.45-.67 4.45-2.65-.93-3.41-2.93zm8.18.88c2.13.44 3.43 2.92 3.43 2.92s-2.17 1.79-4.3 1.35-3.42-2.92-3.42-2.92 2.16-1.78 4.29-1.35zm.23-5.65c1.63-1.43 4.38-1 4.38-1s.11 2.79-1.52 4.22-4.39.95-4.39.95-.1-2.74 1.53-4.17z"/><path class="cls-3" d="M42.44 157.93a88.54 88.54 0 0 0-36-38.12l.39-.71a89.4 89.4 0 0 1 36.47 38.39z"/><path class="cls-3" d="M44.6 143.85c1.24-3.71-1.48-8-1.48-8s-4.73 1.77-6 5.48 1.48 8 1.48 8 4.77-1.76 6-5.48zm-8.26-9.69c1.16-3.5-1.4-7.5-1.4-7.5s-4.45 1.67-5.61 5.17 1.4 7.5 1.4 7.5 4.44-1.67 5.61-5.17zm-14.46.29c-3.66.48-6.14 4.53-6.14 4.53s3.44 3.27 7.09 2.8 6.17-4.52 6.17-4.52-3.47-3.26-7.12-2.81zm-6.62-7.26c-3.12.41-5.24 3.86-5.24 3.86s2.93 2.8 6.05 2.39 5.24-3.86 5.24-3.86-2.94-2.79-6.05-2.39z"/><path d="M25.55 125.05c.49-3-2.07-5.84-2.07-5.84s-3.36 1.9-3.85 4.85 2.07 5.84 2.07 5.84 3.36-1.9 3.85-4.85z" fill="#2a47af"/><path class="cls-3" d="M15.8 119.18c.41-2.48-1.74-4.91-1.74-4.91s-2.82 1.6-3.24 4.08 1.74 4.91 1.74 4.91 2.83-1.6 3.24-4.08zM6.7 122c-2.33 1-3.25 4.08-3.25 4.08s2.86 1.55 5.18.58 3.25-4.07 3.25-4.07S9 121.06 6.7 122zm-1.51-6.35C3 114.39 0 115.54 0 115.54s.49 3.2 2.66 4.46 5.2.11 5.2.11-.5-3.19-2.67-4.46zm25.59 29.1c-3.91-.15-7.23 3.65-7.23 3.65s3 4 6.94 4.19 7.23-3.66 7.23-3.66-3.02-4.04-6.94-4.18z"/><path d="M137.6 42.42H29.51a11 11 0 0 0-11 11v71.13c0-3.21 4.92 4 11 4H137.6c6.08 0 10.48-1.82 11-4.2V53.43a11 11 0 0 0-11-11.01z" fill="#3789d3"/><path d="M26.88 113.7a4.68 4.68 0 0 1-4.55-4.8l.29-57.6a4.68 4.68 0 0 1 4.55-4.8h110.51c3.94 0 6.82 4.07 6.82 5.63l-.29 56.77a4.68 4.68 0 0 1-4.55 4.8z" fill="#e7eff7"/><path class="cls-7" d="M18.51 117.55v7a11 11 0 0 0 11 11H137.6a11 11 0 0 0 11-11v-7z"/><path fill="#accce5" d="M64.29 135.57h38.53v13.59H64.29z"/><path class="cls-7" d="M56.36 146.16h54.39a9.51 9.51 0 0 1 9.51 9.51v1.66H46.85v-1.66a9.51 9.51 0 0 1 9.51-9.51z"/><path class="cls-9" d="M88.92 125.93a4.67 4.67 0 1 1-4.67-4.67 4.67 4.67 0 0 1 4.67 4.67z"/><rect class="cls-10" x="36.77" y="54.75" width="92.18" height="10.57" rx="2.76" ry="2.76"/><path d="M89.77 95.33H38a1.15 1.15 0 0 0-1.12 1.18v1.76A1.15 1.15 0 0 0 38 99.45h51.77a2 2 0 0 0 2-2.06 2 2 0 0 0-2-2.06z" fill="#a0cdef"/><rect class="cls-10" x="36.89" y="103.1" width="35.97" height="4.12" rx="1.08" ry="1.08"/><ellipse class="cls-9" cx="55.02" cy="60.68" rx="1.52" ry="1.61"/><ellipse class="cls-9" cx="66.1" cy="60.68" rx="1.52" ry="1.61"/><ellipse class="cls-9" cx="77.18" cy="60.68" rx="1.52" ry="1.61"/><ellipse class="cls-9" cx="88.26" cy="60.68" rx="1.52" ry="1.61"/><ellipse class="cls-9" cx="99.34" cy="60.68" rx="1.52" ry="1.61"/><ellipse class="cls-9" cx="110.42" cy="60.68" rx="1.52" ry="1.61"/><rect class="cls-10" x="85.76" y="71.63" width="18.13" height="19.13" rx="3.36" ry="3.36"/><rect class="cls-9" x="110.7" y="71.63" width="18.13" height="19.13" rx="3.36" ry="3.36"/><rect class="cls-10" x="36.78" y="71.63" width="18.13" height="19.13" rx="3.36" ry="3.36"/><rect x="61.5" y="71.63" width="18.13" height="19.13" rx="3.36" ry="3.36" fill="#55a2e0"/><circle class="cls-3" cx="21.09" cy="45.5" r="11.74"/><path class="cls-10" d="M19 50.7a1.2 1.2 0 0 1-.84-.35l-3.85-3.85a1.18 1.18 0 0 1 0-1.67 1.2 1.2 0 0 1 1.68 0l3 3L25.86 41a1.18 1.18 0 0 1 1.67 0 1.2 1.2 0 0 1 0 1.68l-7.69 7.69a1.22 1.22 0 0 1-.84.33z"/><path d="M103.1 31.94a11.08 11.08 0 1 0-3.92-21.42 11.07 11.07 0 0 0-22.06-.58A11.33 11.33 0 0 0 74 9.48a11.08 11.08 0 0 0 0 22.15z" fill="#cbe6f4"/><path class="cls-9" d="M84.19 36.25h8.72v-8.59h4.35l-8.71-11.39-8.72 11.39h4.36v8.59z"/><path class="cls-7" d="M167.12 49.75H140a3.42 3.42 0 0 0-3.42 3.42v24a1 1 0 0 0 1.67.7l6.19-6.19a2.91 2.91 0 0 1 2.05-.85h20.6a3.47 3.47 0 0 0 3.47-3.47V53.22a3.47 3.47 0 0 0-3.44-3.47z"/><path class="cls-9" d="M163.84 56h-19.33a1.25 1.25 0 0 0-1.25 1.25 1.25 1.25 0 0 0 1.25 1.25h19.33a1.25 1.25 0 0 0 1.25-1.25 1.25 1.25 0 0 0-1.25-1.25zm-7.58 7.17h-11.75a1.25 1.25 0 0 0-1.25 1.25 1.26 1.26 0 0 0 1.25 1.25h11.75a1.26 1.26 0 0 0 1.25-1.25 1.26 1.26 0 0 0-1.25-1.25z"/><path class="cls-14" d="M47.91 24.54l1.79 4.11a.59.59 0 0 0 .3.35l4.11 1.79a.63.63 0 0 1 0 1.15L50 33.69a.64.64 0 0 0-.32.33l-1.79 4.11a.63.63 0 0 1-1.14 0L45 34a.64.64 0 0 0-.32-.33l-4.11-1.78a.63.63 0 0 1 0-1.15L44.66 29a.59.59 0 0 0 .32-.32l1.79-4.11a.62.62 0 0 1 1.14-.03zm-16.27-11.4l1.45 3.34a.55.55 0 0 0 .27.27l3.34 1.45a.51.51 0 0 1 0 .93l-3.34 1.46a.53.53 0 0 0-.27.26l-1.45 3.34a.51.51 0 0 1-.93 0l-1.46-3.34a.47.47 0 0 0-.26-.26l-3.34-1.46a.51.51 0 0 1 0-.93L29 16.75a.49.49 0 0 0 .26-.27l1.46-3.34a.51.51 0 0 1 .92 0zm18.79-1.29l.85 2a.29.29 0 0 0 .16.15l2 .85a.3.3 0 0 1 0 .55l-2 .85a.31.31 0 0 0-.16.16l-.85 2a.3.3 0 0 1-.55 0l-.85-2a.29.29 0 0 0-.15-.16l-2-.85a.3.3 0 0 1 0-.55l2-.85a.28.28 0 0 0 .15-.15l.85-2a.3.3 0 0 1 .55 0z"/><g id="Layer_2-2" data-name="Layer 2"><path d="M44.53 77.61a1.7 1.7 0 0 1 3.1-.29c.4.74.84 1.47 1.26 2.2.7 1.22 1.41 2.44 2.1 3.67a1.67 1.67 0 0 1-1.2 2.49 1.7 1.7 0 0 1-1.79-.85c-.61-1.08-1.24-2.15-1.85-3.22a.18.18 0 0 0 0-.07.69.69 0 0 1-.13-.2c-.28-.48-.56-1-.83-1.44l-.55-.9a1.77 1.77 0 0 1-.22-.9 1.08 1.08 0 0 1 .11-.47" fill="#3c8bd9"/><path class="cls-16" d="M44.53 77.61a2.14 2.14 0 0 0-.08.44 1.76 1.76 0 0 0 .24 1L46 81.34c0 .07.07.14.11.2-.24.43-.49.85-.74 1.27-.34.59-.68 1.19-1 1.78a.29.29 0 0 1 0-.09 1.66 1.66 0 0 0-2.66-1.75c-.07 0-.12.13-.2.17l.59-1c.81-1.4 1.61-2.81 2.43-4.21"/><path d="M41.5 82.89l.23-.21a1.69 1.69 0 0 1 2.7 1 1.72 1.72 0 0 1-.06.87.64.64 0 0 0 0 .07c0 .06-.07.13-.11.2a1.65 1.65 0 0 1-1.6.85 1.68 1.68 0 0 1-1.32-2.55l.13-.21" fill="#34a852"/><path class="cls-16" d="M114.5 82.89a.15.15 0 0 1 0-.07"/><path d="M117.35 84.65v-.07.06" fill="#e1c025"/></g><path class="cls-19" d="M133.73 153.55v3.77h-10.26a.66.66 0 0 1-.4-1.19 14.55 14.55 0 0 1 6.35-2.58zm18.73 0v3.77H142.2a.66.66 0 0 1-.4-1.19 14.55 14.55 0 0 1 6.34-2.58z"/><path d="M152.46 153.55c-.7-4.86-5.52-37.74-6.48-38.46s-8.39 7.67-8.39 7.67c.76.75 8.3 25.7 10.49 30.79z" fill="#166d5c"/><path d="M133.64 153.55h.09c1.64-5.49 5.54-23 10.23-29.09 2.24-2.89 2.23-10.14 2.23-10.14l-12.93 2.59c-2.13 4.26-3.52 30-3.84 36.64z" fill="#16816f"/><path d="M142.5 97.19c-.82-2.16-12.25-16.56-12.25-16.56l-4.15 1.87s7.57 13.27 9.54 16.08z" fill="#83bee2"/><path class="cls-19" d="M133.29 86s-3.67-2-.81-6a3.91 3.91 0 0 0 4.39 1.66c9-2.76 9.44 6.61 7.82 10-.71 1.46-2.51 2.62-2.9 2.51s-2.12-3.44-2.12-3.44z"/><path class="cls-23" d="M133.35 85.84a6.85 6.85 0 0 0-.42 3.15 3.75 3.75 0 0 0 7.2 1.84 1.85 1.85 0 0 0 1.87-1.35 1.64 1.64 0 0 0-.94-2.09c-.26-.08-.71.24-1 .3a4.23 4.23 0 0 1-2.21-2.2z"/><path class="cls-23" d="M141.52 90.26l-3.98.81v4.72h3.98v-5.53z"/><path d="M147.36 115.09s-3-17-3.42-18.11-2.14-1.77-6.66-1.73c-2.63 0-11.13-1.47-12.49-2.1s-9-9.79-9-9.79l-3.54 2.26s7.17 11.34 9.34 12.06 9.91 3.32 9.91 3.32l.27 16.59s10.52 4.94 15.59-2.5z" fill="#64a6d8"/><path class="cls-23" d="M115.72 83.52s-1.84-4.46-2.28-4.56-.71 1.73-.71 1.73-1.7-4.21-2.62-4.25-1.77 5 2.41 9.12zm11.05-1.28s-3.29-3.81-2.68-4 1.9.93 1.9.93-2.26-5.24-.77-5.43 4.39 4.64 5 6.85z"/><path class="cls-14" d="M164.59 112l1.43 3.29a.47.47 0 0 0 .26.26l3.29 1.44a.5.5 0 0 1 0 .91l-3.29 1.43a.51.51 0 0 0-.26.26l-1.43 3.3a.5.5 0 0 1-.92 0l-1.43-3.3a.55.55 0 0 0-.26-.26l-3.29-1.43a.5.5 0 0 1 0-.91l3.29-1.44a.51.51 0 0 0 .26-.26l1.43-3.29a.5.5 0 0 1 .92 0zm-8.04-9.13l1.16 2.68a.43.43 0 0 0 .21.21l2.68 1.16a.41.41 0 0 1 0 .75l-2.68 1.16a.43.43 0 0 0-.21.21l-1.16 2.68a.41.41 0 0 1-.75 0l-1.16-2.72a.47.47 0 0 0-.21-.21l-2.69-1.16a.41.41 0 0 1 0-.75l2.69-1.16a.47.47 0 0 0 .21-.21l1.16-2.68a.41.41 0 0 1 .75.04zm9.05-4.04l.69 1.57a.2.2 0 0 0 .12.12l1.57.69a.24.24 0 0 1 0 .44l-1.57.68a.23.23 0 0 0-.12.12l-.69 1.55a.23.23 0 0 1-.43 0l-.69-1.57a.23.23 0 0 0-.12-.12l-1.57-.68a.24.24 0 0 1 0-.44l1.57-.69a.2.2 0 0 0 .12-.12l.69-1.57a.23.23 0 0 1 .43.02z"/><path class="cls-10" d="M121.78 76.85h-1.12a2 2 0 0 0-2.09 2.15v1h-1.14a.18.18 0 0 0-.17.18v1.43a.18.18 0 0 0 .17.17h1.14v3.61a.18.18 0 0 0 .18.18h1.48a.18.18 0 0 0 .17-.18v-3.63h1.33a.18.18 0 0 0 .18-.17v-1.43a.19.19 0 0 0 0-.13.21.21 0 0 0-.13 0h-1.38v-.84c0-.4.1-.61.62-.61h.76a.18.18 0 0 0 .18-.17V77a.18.18 0 0 0-.18-.15zm-46.7 1.71a3.76 3.76 0 0 1-1 .27 1.77 1.77 0 0 0 .77-1 3.56 3.56 0 0 1-1.11.43 1.75 1.75 0 0 0-3 1.19 1.68 1.68 0 0 0 0 .4 5 5 0 0 1-3.61-1.82 1.69 1.69 0 0 0-.23.87 1.74 1.74 0 0 0 .77 1.46 1.8 1.8 0 0 1-.79-.22 1.75 1.75 0 0 0 1.4 1.72 1.7 1.7 0 0 1-.46.06 1.84 1.84 0 0 1-.33 0 1.76 1.76 0 0 0 1.64 1.21 3.5 3.5 0 0 1-2.13.77h-.42a5 5 0 0 0 7.66-4.19v-.23a3.58 3.58 0 0 0 .84-.92z"/><path d="M90.89 79h1.84v5.52h-1.84zm.93-2.63a1 1 0 1 0 0 1.91 1 1 0 1 0 0-1.91zm5.41 2.53a1.83 1.83 0 0 0-1.66.91V79h-1.83v5.52h1.83v-3.05a1.49 1.49 0 0 1 .06-.45 1 1 0 0 1 .94-.67c.67 0 .93.5.93 1.24v3h1.84v-3.21c0-1.69-.91-2.48-2.11-2.48z" fill="#069"/></g></g></svg>