<svg xmlns="http://www.w3.org/2000/svg" width="449.05" height="335.79"><defs><style>.cls-2{fill:#c8dbfb}.cls-11,.cls-16,.cls-3,.cls-6,.cls-8{fill:none;stroke-linecap:round;stroke-linejoin:round}.cls-16,.cls-3{stroke:#c8dbfb}.cls-5{fill:#5193f4}.cls-6{stroke:#0b43a4}.cls-7{fill:#00ad9f}.cls-11,.cls-8{stroke:#00ad9f}.cls-12,.cls-8{mix-blend-mode:multiply}.cls-9{fill:#0056ec}.cls-10{fill:#52d2bc}.cls-12{fill:#5275a0;opacity:.2}.cls-13{fill:#7ee8d4}.cls-14{fill:#4a49ca}.cls-16{stroke-dasharray:4}.cls-17{fill:#0b43a4}.cls-18{fill:#fff}.cls-19{fill:#0c2340}.cls-20{fill:#ef832b}.cls-21{fill:#ffb9a3}.cls-23{fill:#009790}</style></defs><g style="isolation:isolate"><g id="Layer_2" data-name="Layer 2"><g id="OBJECTS"><ellipse class="cls-2" cx="152.49" cy="332.18" rx="38.65" ry="3.61"/><ellipse class="cls-2" cx="351.04" cy="332.18" rx="38.65" ry="3.61"/><path class="cls-3" d="M432.7 78c-.11-.67-.23-1.33-.36-2"/><path d="M431.39 72.11c-6.9-23.48-28.88-21.21-48.75-21.17l-352.51.73c-33.27.06-30 48.1-4 48.05 15 0 20.68 28.1-5.22 28.15-15.54 0-16 19.73-5.59 23.68" stroke-dasharray="3.99 3.99" stroke="#c8dbfb" fill="none" stroke-linecap="round" stroke-linejoin="round"/><path class="cls-3" d="M17.24 152.06a11.61 11.61 0 0 0 2 .17"/><path class="cls-5" d="M23.32 151.32a4.79 4.79 0 1 1-5.53-3.92 4.8 4.8 0 0 1 5.53 3.92zm414.09-71.21a4.79 4.79 0 1 1-3.85-5.57 4.8 4.8 0 0 1 3.85 5.57zM72.14 116.34a83.44 83.44 0 0 1-2.93 11.44 194.88 194.88 0 0 1-10 23.57c-1.93 4-9.76 13.32-14 15.09a217.27 217.27 0 0 0-.69-33.33c-1.17-10.2 2.5-17.93-1.5-27.39-.51-1.21-1-2.42-1.57-3.63-2-4.5-4-9-4.58-13.87-.8-6.15 1.11-13.16 6.43-16.36 3.83-2.3 8.82-2.18 12.91-.37a24 24 0 0 1 9.86 8.83c7 10.36 8.26 23.74 6.07 36.02z"/><path class="cls-6" d="M53.53 82.36c7.84 11.06 8.51 23.94 9.19 37.48a72.21 72.21 0 0 1-9.26 39"/><path class="cls-7" d="M53.21 286.34c-5.49-4.85-11-9.77-15.1-15.87-3.53-5.31-5.81-11.34-8.89-16.93-2-3.61-4.35-7.09-5.5-11.06s-.88-8.65 1.93-11.67 8-3.63 12-2 7 5 9.37 8.6a40.94 40.94 0 0 1 6 15.93c.78 5.12.59 10.35 1.38 15.47a51.79 51.79 0 0 0 4.37 13.72c1.83 4 6.47 11 7.66 15.1-3.29 1.63-10.88-9.22-13.22-11.29z"/><path class="cls-8" d="M34 236.05c5.22 2.28 7.29 8.51 8.38 14.1 1.24 6.36 1 13.25 3.88 19 5.5 10.91 12.65 23.32 18 27"/><path class="cls-9" d="M26.2 271.42c-4.56-1.79-10.64-2.53-13.56 1.4-2.44 3.29-1.18 7.95.51 11.69 1.43 3.15 3.24 6.36 6.25 8.07a17.83 17.83 0 0 0 6.8 1.81 164.91 164.91 0 0 0 19.74 1.14 41.37 41.37 0 0 1 23.23 7.86c-8.12-15.08-27.64-25.91-42.97-31.97z"/><path class="cls-6" d="M18.21 281.23c5.8.25 11.65.65 17.21 2.3s27.58 11.73 31 16"/><path class="cls-10" d="M75.88 240.47a38.61 38.61 0 0 0-27-17.23c-8.06-1.08-16.35.43-24.31-1.25a31 31 0 0 1-23.3-39.21c1.87-6.22 6.14-12.11 12.32-14.11a19.56 19.56 0 0 1 10.49-.11 29.34 29.34 0 0 1 8.85 3.83c6.22 3.94 11.25 10 15 16.44 3.43 5.85 11.89 15 17.65 20.88 3.37 3.47 5.83 5.83 5.83 5.83 3.98 4.91 2.13 19.08 4.47 24.93z"/><path class="cls-11" d="M11.79 186.66c19.37 8.74 40.5 20.2 54.23 36.42"/><path class="cls-12" d="M67.88 220.9S39 197.5 32.93 172.39c6.22 3.94 11.25 10 15 16.44 3.43 5.85 11.89 15 17.65 20.88.71 3.15 1.42 6.83 2.3 11.19zm1.33-93.12a194.88 194.88 0 0 1-10 23.57c-1.93 4-9.76 13.32-14 15.09a217.27 217.27 0 0 0-.69-33.33c-1.17-10.2 2.5-17.93-1.5-27.39-.51-1.21-1-2.42-1.57-3.63.37.12.73.25 1.08.4 6.58 2.82 9.62 9.78 10.18 16.54.47 5.58-.54 11.17-1.29 16.72a22.09 22.09 0 0 0-.08 7.69.24.24 0 0 1 0 .08 2.88 2.88 0 0 0 5.62-.21l1.8-9.31c.52-2.78 1.09-5.69 3.37-7.63a4.81 4.81 0 0 1 3.24-1.21 4.44 4.44 0 0 1 3.84 2.62z"/><path class="cls-13" d="M67.88 215c-4.56-23.81-6.95-27.48-4.95-33.44 2.56-7.61 1.12-15.26 3.53-22.91s4.05-15.85 2.11-23.65c-.62-2.46-1.86-5.14-4.82-5.25a4.81 4.81 0 0 0-3.24 1.25c-2.28 1.94-2.86 4.85-3.38 7.63l-1.74 9.29a2.88 2.88 0 0 1-5.62.21v-.08a22.08 22.08 0 0 1 .07-7.69c.75-5.55 1.76-11.14 1.3-16.72-.56-6.76-3.6-13.72-10.19-16.54a11.6 11.6 0 0 0-7.42-.59c-6.87 1.76-8.65 8.48-7.64 14.21.7 4 2.6 7.75 4.31 11.47 4.18 9.09 1.11 17.43 1.69 27.42C33.47 187.15 67.88 215 67.88 215z"/><path class="cls-11" d="M37.22 113.69c3.39 16.94 6.82 34 13.4 50 1.93 4.69 2.88 10.85 14.05 23.6"/><path class="cls-5" d="M169.47 118c-3.51-4-6.75-8.09-10.16-12-2.21-2.55-4.49-5-7-7.4-1.23-1.18-2.5-2.32-3.84-3.43a107.83 107.83 0 0 0-26.21-16c-5.7-2.44-11.72-4.45-16.56-8.34S97.41 60.57 99 54.58c1.17-4.32 4.84-7.68 9-9.22a24.07 24.07 0 0 1 13.23-.47c12.2 2.63 22.39 11.4 29.32 21.77l.37.56c5.08 7.75 8.63 16.37 11.72 25.15 1 2.82 1.93 5.66 2.86 8.49 1.5 4.23 5.77 12.98 3.97 17.14z"/><path class="cls-6" d="M113.66 55.07c13.31 2.54 22.73 11.35 32.6 20.63a72.27 72.27 0 0 1 20.38 34.54"/><path class="cls-12" d="M159.31 106a15.75 15.75 0 0 0 .19 4.16c-3.33-.76-5.64-5.93-7.16-11.56a86.9 86.9 0 0 1-2.46-14.12A61.09 61.09 0 0 1 151 67.22c5.08 7.75 8.63 16.37 11.72 25.15q-1.59 4.72-2.72 9.56a27.79 27.79 0 0 0-.69 4.07z"/><path class="cls-10" d="M182.4 58c-1.12 5-4.14 9.3-6.79 13.68-1.41 2.3-2.71 4.67-3.93 7.07a107.22 107.22 0 0 0-8.86 24.22 19.63 19.63 0 0 0-.49 8.24c-6.56-1.49-9.17-20.14-9.62-25.69a60.4 60.4 0 0 1 5-29.35c1.8-4 4.11-8 7.68-10.52s8.6-3.47 12.37-1.23a10 10 0 0 1 4.44 6.13 15.28 15.28 0 0 1 .2 7.45z"/><path class="cls-11" d="M159.82 105.67c-4.08-10.25-1.61-31.94 4.94-45.57 2-4.1 4.78-8 8.71-10.25"/><path class="cls-12" d="M182.4 58c-1.12 5-4.14 9.3-6.79 13.68-1.41 2.3-2.71 4.67-3.93 7.07a23.79 23.79 0 0 1-3.36-9.83c-.55-5.81 1.67-12 6.39-15.46a17.24 17.24 0 0 1 7.51-2.91 15.28 15.28 0 0 1 .18 7.45z"/><path class="cls-7" d="M220.25 101.36a21.14 21.14 0 0 1-1.7 5.52c-2.91 6.3-9 11.71-18.17 16.1 0 0-.51-10-.61-12.62-.45-11.42-12.84-17.74-20.68-26.06-4-4.25-7-9.62-7.58-15.42s1.66-12 6.39-15.46c4-2.85 9.14-3.48 14-3.11 7.86.63 15.79 3.92 20.67 10.06a7.62 7.62 0 0 1 .58.72c3 4.09 4.53 9.07 5.66 14 1.97 8.62 2.85 17.56 1.44 26.27z"/><path class="cls-8" d="M181.27 59.55c8.57 4.43 17.17 9.8 22.16 18.06 7 11.53 5.45 26.53.08 38.88"/><path class="cls-10" d="M363.75 175c5.47-9 2.67-20.57 4.58-30.93a34.18 34.18 0 0 1 12.23-20.38c4-3.16 9.56-5.42 14.06-3 1 .51 2.13 1.24 3.07.66a2.45 2.45 0 0 0 .91-1.68c1.14-5.6-1.55-11.71.65-17 1.18-2.83 3.63-5 6.22-6.6a33.9 33.9 0 0 1 16.77-5.26 9.3 9.3 0 0 1 4.62.7c2.54 1.27 3.7 4.44 3.36 7.26a16 16 0 0 1-3.63 7.6c-5.74 7.51-14.15 14-15.26 23.38a6.05 6.05 0 0 0 .41 3.5c.52 1 1.5 1.75 2.05 2.77 1.77 3.25-1.65 6.93-5 8.53a28.92 28.92 0 0 1-9.72 2.69c-2.32.22-4.93.27-6.51 2-2.9 3.16.44 8.21-.17 12.46-.38 2.65-2.31 4.79-4.24 6.65a76 76 0 0 1-11.7 9.22c-3.4 2.18-7 4.1-10 6.79s-5.44 6.31-5.64 10.34"/><path class="cls-11" d="M371 166.26c.9-4.36 2.93-8.4 4.93-12.37 3.14-6.21 6.35-12.51 11.09-17.6 3.6-3.87 8-6.93 11.65-10.74a39.78 39.78 0 0 0 6.58-9.14 31.57 31.57 0 0 1 3.05-5.3c1.51-1.89 3.59-3.24 5.4-4.86a23.2 23.2 0 0 0 5.72-7.89"/><path class="cls-5" d="M442.26 181.26c-1.23 4.74-3.06 9.43-6.2 13.19a28.14 28.14 0 0 1-7.82 6.31 44 44 0 0 1-4.73 2.31 56.79 56.79 0 0 1-19.77 4.38c-9.88.37-20-1.81-29.52 1a29.09 29.09 0 0 0-11.65 6.75 28.34 28.34 0 0 0-5.23 6.61l1.29-8.2c2.39-8.82 4.83-17.8 9.71-25.53a67.17 67.17 0 0 1 11.59-13.38 96.68 96.68 0 0 1 23.17-16.2c6.88-3.34 14.52-5.69 22.12-4.76s15 5.72 17.42 13c1.52 4.67.86 9.77-.38 14.52z"/><path class="cls-6" d="M365.09 207.38a60 60 0 0 1 30.43-23.11c7.66-2.55 15.77-3.53 23.53-5.77s15.51-6 20.06-12.72"/><path class="cls-10" d="M369.87 286.15c.43-11 6.13-21.21 13.06-29.81 5.77-7.17 12.74-13.73 21.35-17 2.69-1 5.65-1.72 8.45-1s5.34 3.09 5.39 6c.05 2.43-1.59 4.56-3.31 6.28-5.65 5.67-13 9.3-19.82 13.44-11.78 7.12-23 16.63-27.65 29.57"/><path class="cls-11" d="M374.23 276.5c7.2-16.06 25.83-30.42 38.13-32.21"/><path class="cls-7" d="M365.37 294.92c-.1-1.85 5.93-6.68 7.29-7.92a69.88 69.88 0 0 1 25.92-14.81c3.82-1.2 7.88-2.07 11.71-1.15s7.33 4.06 7.71 8.19-2.32 7.91-5.75 9.85-7.43 2.23-11.25 2c-5.9-.35-11.7-1.81-17.63-1.77s-14.24.69-18 5.61z"/><path class="cls-8" d="M371.51 289.3c12.11-6.56 30.42-10.83 43.72-9.22"/><path class="cls-12" d="M220.25 101.36a21.14 21.14 0 0 1-1.7 5.52 96.25 96.25 0 0 1-8.89-35.21 19.52 19.52 0 0 1 2.93-11.3 7.62 7.62 0 0 1 .58.72c3 4.09 4.53 9.07 5.66 14 1.95 8.62 2.83 17.56 1.42 26.27z"/><path class="cls-13" d="M262.14 100.86c9.05-3.22 18.44-5.78 26.66-10.73a23.42 23.42 0 0 0 6.65-5.54 11.15 11.15 0 0 0 2.45-8.12c-.4-2.92-2.27-5.72-1.64-8.61.42-1.9 1.84-3.38 2.93-5a15.92 15.92 0 0 0 2.05-13.28c-1.42-4.76-5-8.57-7-13.11a21.81 21.81 0 0 1-1.69-11.9c-7.59.1-14.52 4.24-22 5.63-5.71 1.05-11.65.48-17.3 1.78a27.29 27.29 0 0 0-20.34 21.92 15 15 0 0 0-13.26 4.44 19.53 19.53 0 0 0-5.2 14.26c2.33 37.43 23.76 57 23.76 57s20.48-27.52 23.93-28.74z"/><path class="cls-11" d="M241.91 100.59c-.94-9.23 2.29-18.35 6-26.86 3.61-8.3 7.76-16.43 13.34-23.54s12.67-13.23 21-16.66M250 39.19a74.52 74.52 0 0 0 1.86 26.15m1.5-2.94c9.4-6 23.86-9.69 35-9.06m-57.99 10.6c11.32 4.77 11.79 21.41 12.09 26.14m3.08-10.58c8.66-6.21 21.18-8.08 30.39-5.77m-6.76-38.81a13.68 13.68 0 0 0-3 9.68m2.47-2.35c4-2 9.33-2.51 15-1.08"/><path class="cls-14" d="M46 60.35c1.07-.06 8.32-5.43 11.11-7.24a7.6 7.6 0 0 0 2.14-1.8 2.69 2.69 0 0 0 .4-2.65 3.33 3.33 0 0 0-3.39-2.1c-3.62 0-4.87 1.2-6.63 3C43.8 55.59 46 60.35 46 60.35zM78.51 82c3.15 1.42 6.53 2.84 10 2.4 1.34-.17 2.79-.78 3.23-2a3 3 0 0 0-1-3.08 7.11 7.11 0 0 0-3.11-1.4c-4.2-1-10.1-.46-14.27.72A36 36 0 0 0 78.51 82zm20.8-46.63c-1.41-.89-3-2.08-3-3.75s1.74-2.94 3.41-2.95a7 7 0 0 1 4.48 2c5.31 4.66 4.65 10 4.65 10s-7.97-4.31-9.54-5.3zm4.19-14.23a6.87 6.87 0 0 1-3.24-2.31 2.2 2.2 0 0 1-.33-1.83c.36-1 1-2 3.61-1.49 8.25 1.5 10 7.15 10 7.15s-7.85-.58-10.04-1.52zm24.17 12.49a13 13 0 0 0 8.81-4.51 8.09 8.09 0 0 0 1.77-3.28 3.56 3.56 0 0 0-1-3.45 3.66 3.66 0 0 0-4.28 0 8.71 8.71 0 0 0-2.72 3.61c-.88 1.82-2.58 7.63-2.58 7.63z"/><path class="cls-6" d="M68.58 154.3l-24-21.19c-4.27-3.77-8.63-7.64-11.33-12.65-5.85-10.77-2.5-24.76 5.35-34.15S58 71.38 69.51 67.35s23.58-6.86 34.59-12.2c6.9-3.34 13.9-8.33 15.75-15.76a15.74 15.74 0 0 0-14.31-19.59m27.73 6.2c-2.19 6.73-10.72 10.82-14.61 16.64"/><path class="cls-6" d="M102.65 33.69c1.68 1.77 3.69 3.23 5.16 5.19 3.09 4.13 3.35 10.83-1.23 15M59.5 71.32a45.75 45.75 0 0 0 25.28 9.43m-41.46.49a24.94 24.94 0 0 1 8.39-27.19"/><path class="cls-14" d="M301.73 40.69a3.55 3.55 0 0 1 .52-3.54 2.62 2.62 0 0 1 2.77-.62c7 3.1 6.27 14.06 6.27 14.06s-6.67-.96-9.56-9.9zm-.17 20.54C297 69.45 313.18 68.82 319 64c0 0-13.52-9.84-17.44-2.77zM322 41.31c-1.1-1.5-1.49-3.74-.3-5.17a4 4 0 0 1 3.8-1.14 8.81 8.81 0 0 1 4.27 2.6c5.32 6.62 2.82 13.1 2.82 13.1s-8.8-6.92-10.59-9.39zm64.18 20.35a3.65 3.65 0 0 1 .69-3.74 3.19 3.19 0 0 1 2.37-.7 7.19 7.19 0 0 1 2.42.72 7.69 7.69 0 0 1 3.72 3.7c2 4.12.64 9.21.64 9.21s-8.86-6-9.84-9.19zM366 76.74A10.38 10.38 0 0 0 355.27 75a5.5 5.5 0 0 0-2.27 1.74c-1.27 1.76-.83 4.35.5 6.08a13.45 13.45 0 0 0 5.31 3.68c3.6 1.63 9.18 2 13 2.93-.01 0-.02-7.6-5.81-12.69z"/><path class="cls-6" d="M306.77 42.45c2.38 7.79 9.11 13.66 16.6 16.84s15.74 4 23.87 4.54 16.33.78 24.19 2.92c7.65 2.07 15.27 6.4 18.56 13.62 4 8.79.46 19.29-5.16 27.15s-13.17 14.18-18.6 22.16c-2.49 3.66-4.57 7.95-4.07 12.36.67 5.87 5.62 10.19 10.21 13.91M325.49 39.6a46.58 46.58 0 0 1 10.73 23.22"/><path class="cls-6" d="M307.39 62.59a37.25 37.25 0 0 0 9.38 1.65 14.29 14.29 0 0 0 9.16-4m65.52 1.91a15.87 15.87 0 0 1 4.78 10.71c.15 4-2.07 8.86-4.74 11.85m-30.21-4.39a160.72 160.72 0 0 0 17.17 14.09c2.93 2.06 8.73 4.69 11.3 4"/><path class="cls-12" d="M428.24 200.76a44 44 0 0 1-4.73 2.31 56.79 56.79 0 0 1-19.77 4.38c-9.88.37-20-1.81-29.52 1a29.09 29.09 0 0 0-11.65 6.75c-.33.16-.66.34-1 .53-.79-6.69 15.89-15.41 21-17.68a60.43 60.43 0 0 1 29.35-5.12c4.38.35 8.87 1.21 12.48 3.7a13.36 13.36 0 0 1 3.84 4.13z"/><path class="cls-10" d="M411.88 196.94c4.38.35 8.87 1.21 12.49 3.7s6.16 6.94 5.31 11.25c-1 5-6.17 8.28-11.25 8.9s-10.15-.79-15.16-1.79a108.16 108.16 0 0 0-33.77-1.55 19.76 19.76 0 0 0-7.93 2.31c-.79-6.69 15.9-15.41 21-17.68a60.41 60.41 0 0 1 29.31-5.14z"/><path class="cls-11" d="M365.91 215.52c8.29-7.28 29.55-12.22 44.59-10.63 4.53.48 9.1 1.83 12.58 4.77"/><path d="M350.44 133.72l80.88-.17a17.19 17.19 0 0 1 17.23 17.16 17.19 17.19 0 0 1-17.15 17.22l-55.33.11M105.7 193.11l-56.57.12a9.7 9.7 0 0 0-9.68 9.77 9.7 9.7 0 0 0 9.72 9.68h16.49" stroke-dasharray="4" stroke="#0b43a4" fill="none" stroke-linecap="round" stroke-linejoin="round"/><path class="cls-16" d="M15.41 236.92C-4 237-4.37 265.86 20.28 265.81l363.38-.75c15.26 0 16.87-23.83-2-23.79-37.52.08-38.77-17.82-17.94-17.86"/><path class="cls-5" d="M19.94 236.11a4.79 4.79 0 1 1-5.52-3.91 4.79 4.79 0 0 1 5.52 3.91z"/><path class="cls-17" d="M373 223.54a4.79 4.79 0 1 1-5.53-3.92 4.78 4.78 0 0 1 5.53 3.92z"/><path class="cls-12" d="M378.24 307.11l-300.89.62a7.27 7.27 0 0 1-7.28-7.25l-.41-199.33a7.27 7.27 0 0 1 7.25-7.29l300.89-.62a7.26 7.26 0 0 1 7.28 7.25l.42 199.34a7.28 7.28 0 0 1-7.26 7.28z"/><path class="cls-18" d="M372.35 303.3l-300.89.62a7.27 7.27 0 0 1-7.28-7.25l-.41-199.33A7.27 7.27 0 0 1 71 90.05l300.89-.62a7.27 7.27 0 0 1 7.28 7.26L379.6 296a7.27 7.27 0 0 1-7.25 7.3z"/><path class="cls-9" d="M371.42 89.43l-299.6.62a7.92 7.92 0 0 0-7.9 7.95v6.88l315.42-.65v-6.9a7.92 7.92 0 0 0-7.92-7.9z"/><path class="cls-2" d="M72.18 303.92l45.27-.09-.45-199.08-53.18.11.43 191.14a7.91 7.91 0 0 0 7.93 7.92z"/><path class="cls-9" d="M372 91.43a5.28 5.28 0 0 1 5.27 5.26l.41 199.31a5.27 5.27 0 0 1-5.26 5.28l-300.9.62a5.27 5.27 0 0 1-5.27-5.25l-.41-199.32a5.29 5.29 0 0 1 5.26-5.28l300.9-.62m0-2l-300.89.62a7.27 7.27 0 0 0-7.25 7.29l.41 199.33a7.27 7.27 0 0 0 7.27 7.25l300.89-.62a7.26 7.26 0 0 0 7.26-7.28l-.41-199.33a7.27 7.27 0 0 0-7.28-7.26z"/><rect class="cls-18" x="72.13" y="282.82" width="40.46" height="5.92" rx="2.79" ry="2.79" transform="rotate(-.12 90.423 281.8)"/><rect class="cls-18" x="70.77" y="113.76" width="39.91" height="39.91" rx="5.11" ry="5.11" transform="rotate(-.12 90.578 133.785)"/><rect class="cls-2" x="125.64" y="234.99" width="110.76" height="7.73" rx="3.64" ry="3.64" transform="rotate(-.12 176.417 234.143)"/><rect class="cls-2" x="141.36" y="117.07" width="89.05" height="7.73" rx="3.64" ry="3.64" transform="translate(-.25 .38)"/><rect class="cls-2" x="243.38" y="199.8" width="116.31" height="7.73" rx="3.64" ry="3.64" transform="rotate(-.12 295.818 200.845)"/><rect class="cls-2" x="125.67" y="250.98" width="110.76" height="7.73" rx="3.64" ry="3.64" transform="rotate(-.12 176.397 253.241)"/><rect class="cls-2" x="125.71" y="266.96" width="110.76" height="7.73" rx="3.64" ry="3.64" transform="rotate(-.12 176.382 267.565)"/><rect class="cls-2" x="243.49" y="228.3" width="116.31" height="56.81" rx="6.01" ry="6.01" transform="rotate(-.12 295.763 253.366)"/><path class="cls-2" d="M81.22 97.3a2.55 2.55 0 1 1-2.55-2.54 2.53 2.53 0 0 1 2.55 2.54z"/><circle class="cls-2" cx="89.47" cy="97.28" r="2.55"/><path class="cls-2" d="M102.81 97.25a2.55 2.55 0 1 1-2.56-2.54 2.56 2.56 0 0 1 2.56 2.54z"/><circle class="cls-2" cx="130.03" cy="121.05" r="7.37" transform="rotate(-84.28 130.03 121.053)"/><rect class="cls-18" x="73.66" y="156.99" width="35.39" height="2.92" rx="1.37" ry="1.37" transform="translate(-.33 .19)"/><rect class="cls-18" x="73.68" y="163.23" width="35.39" height="2.92" rx="1.37" ry="1.37" transform="rotate(-.12 90.548 162.433)"/><path class="cls-2" d="M145.08 179.29l-9.23.09.07 38.68h-8a5.09 5.09 0 0 1-5.1-5.08l-.15-71.53a5.15 5.15 0 0 1 5.14-5.15h17.14z"/><path class="cls-2" d="M205 136.16v1a5 5 0 0 1 5 5l.15 69.74a5 5 0 0 1-5 5l-76.27.16a5 5 0 0 1-5-5l-.15-69.74a5 5 0 0 1 5-5l76.25-.16v-1m0 0l-76.26.16a6 6 0 0 0-6 6l.15 69.74a6 6 0 0 0 6 6l76.26-.16a6 6 0 0 0 6-6l-.13-69.74a6 6 0 0 0-6-6z"/><rect class="cls-2" x="230.34" y="118.92" width="116.31" height="63.93" rx="6.01" ry="6.01" transform="rotate(12.74 288.413 150.818)"/><path class="cls-9" d="M135.45 331.26l-14.23.03-3.49-18.14 21.13-.04-3.41 18.15z"/><path class="cls-2" d="M121.67 313.15c0 1.48-.28 4 .71 4s.58-2.36 1.7-2.3c.72 0-.34 7.88 2.37 8.07 1.87.13 1.53-3.84 1.72-6.33a1.16 1.16 0 0 1 2.3-.24c0 1.25-.06 2.08 0 3.5.1 2.36 3.74 1.74 3.61-1.43s0-5.3 0-5.3z"/><path class="cls-19" d="M118.27 324.1a3.89 3.89 0 0 1-.85-.09 3 3 0 0 1-2.18-1.64c-1.45-3.07 2.37-8.84 2.52-9.09l.19 1c0 .06-3.35 5-2 7.78a2.26 2.26 0 0 0 1.69 1.25 2.84 2.84 0 0 0 .72.07c5.12 0 13.88-9.56 14-9.67.36-.43 1 0 .79.34-.47.49-9.37 10.04-14.88 10.05z"/><path class="cls-12" d="M267.83 76.12c-20.23-.77-48.08 14.19-38.2 50.77-.21 3.09 1.64 5.3 3.61 4.69s.23-6.46.23-6.46c3.37-27.2 9.67-31.9 20.37-31.81h25.09c6.2.92 17.47 5.25 19.16 27l6.25 1.16c.48-15.76-3.34-44.08-36.51-45.35z"/><path class="cls-20" d="M267.83 72.94c-20.23-.78-48.08 14.18-38.2 50.76l3.84-1.77c3.37-27.19 9.67-31.9 20.37-31.8h25.09c6.2.91 17.77 6.41 19.46 28.18h5.95c.48-15.78-3.34-44.1-36.51-45.37z"/><path class="cls-21" d="M263.69 73.53l-3 6.61s.36 3.71 4 3.64 4.15-1.78 4.15-1.78l.47-7.58z"/><path class="cls-21" d="M279.14 68c-3.43 6.06-4.94 7.94-9.42 8.85-5.8 1.18-12.31-2.73-9.28-12.37 2.46-7.86 6.19-6.65 9.85-6.35s12.55 3.35 8.85 9.87z"/><path class="cls-19" d="M265.52 63.25a2.44 2.44 0 0 0-2.78.67 3 3 0 0 0-.77 2.92 2.66 2.66 0 0 0-2.5 2.79c-1-2.23-.44-4.56-.63-6.85s.06-4.77 1.54-6.52a7.42 7.42 0 0 1 2.22-1.71 11.5 11.5 0 0 1 10.32-.15 6.28 6.28 0 0 0 4.65.82c4.41-1.07 7 1.92 4.34 4.72a3.49 3.49 0 0 1 2.18 1.5.7.7 0 0 1 0 .67.83.83 0 0 1-.41.25 4.81 4.81 0 0 1-2.32.18c.29.26 1.93.35 2.43 1.31 1.32 2.54-3.9 1.25-4.7 1 .91.17 3.29 2.07 2.53 3.38-.15.26-3.37 2.13-6.75-1.8a6.21 6.21 0 0 0-2.87-2.07 4.65 4.65 0 0 0-2.75.43c-.65.24-2.3 1.25-2.77.65s.1-1.67-.96-2.19z"/><path class="cls-21" d="M299 118.27c-.89 3.09-1.8 3.39-.71 3.88s2-1.23 2-1.23l5 1s-1.13-3.26-1.92-3.65-4.37 0-4.37 0zm-65.53 3.66c.66 1.63.84 1.64 1.75 3.6 1.75 3.74-2.34 9.65-4.88 3.2a18.36 18.36 0 0 1-.71-5z"/><path class="cls-19" d="M272.67 54.93c3.43.18 7.65-2.24 10.34.87.24.29.74-.09.52-.4-2.56-3.69-7.33-.95-10.86-1-.37 0-.36.55 0 .57zm1.38-1.93c-2.35.4-4.61-.7-7-.33a10.27 10.27 0 0 0-5 2.53c-.37.32.11.95.52.68 2-1.33 4-2.48 6.49-2.29 1.83.13 3.38.67 5.2.13a.37.37 0 0 0-.2-.72zm-13.34 3.24a5.49 5.49 0 0 0-2.8 4.37c-.14 1.41-.18 4.67 1.25 5.47a.35.35 0 0 0 .42-.54c-.92-.93-1-3.44-.93-4.63a5.44 5.44 0 0 1 2.29-4.27c.24-.18 0-.57-.23-.4zm25.37 5.63c-.85-1.47-3-2.78-4.69-1.84a.3.3 0 0 0 .15.55 7.46 7.46 0 0 1 2.11.14 3.72 3.72 0 0 1 2 1.41c.19.27.62 0 .45-.26z"/><path class="cls-17" d="M174.8 214.42c10.61 3.89 19.82 16.06 17.7 24.9-2.38 10-9.27 14.3-9.27 14.3l-2.18-4s5.51-8.61 5-12.68c-.76-6.52-9-10.87-9-10.87z"/><path class="cls-19" d="M148.69 327.14s-6.51 2.63-8.14 4.11h12.9v-4.1zm28.51-.25a10.43 10.43 0 0 1 2.19 4.29h-8.8a10.23 10.23 0 0 1 1.64-4.29z"/><path d="M177.74 327.08h-6c.12-7.08-1.34-31.21-2.75-49.25-.83-10.58-1.65-19.08-2.13-20.8l3.22-.71 12.15-2.7c2.07 9.51-2.73 53.13-4.49 73.46z" fill="#047f76"/><path class="cls-23" d="M155.65 256.66c-4.69 7.38-5.9 60.74-7.87 70.63l5.7.32A518 518 0 0 1 174 256.15z"/><path class="cls-12" d="M176.38 256.15c-2.75 7.47-5.22 14.78-7.4 21.69-.83-10.58-1.65-19.08-2.13-20.8l3.22-.71z"/><path class="cls-23" d="M155.65 256.66c-4.69 7.38-5.9 60.74-7.87 70.63l5.7.32A518 518 0 0 1 174 256.15z"/><path class="cls-21" d="M159.23 197.09S155.58 211 164.69 211l-.54 3.55 6.93.76-1.5-4.95S171 201.59 171 200c.21-2.93-8-8.13-11.77-2.91z"/><path class="cls-19" transform="rotate(-.11 140.45 192.857)" d="M134.01 181.5h2.69v11.35h-2.69z"/><rect class="cls-9" x="125.67" y="177.19" width="19.33" height="4.31" rx="1.95" ry="1.95" transform="rotate(-.11 140.46 182.44)"/><path class="cls-21" d="M133.28 195.82c-.08-2.58-2.2-1.9-1-6.1.72-2.6 6.09.41 5.42 2.21s-1.44 4.65-1.44 4.65z"/><path class="cls-9" d="M164.76 213.71c-13.63.9-14.53 5.5-20.63 4.78-9-1.07-7.45-17.83-6.33-23.84h-5.39s-9.72 38.19 21 31.13c-1.18 6.69 6.45 17.61-.95 30.87 11.66 3.17 22.53 3.95 31.84-.06-1.63-2.19 3.34-24.39-6.39-40.36-1.91-3.11-12.15-2.59-13.15-2.52z"/><path class="cls-9" d="M164.76 213.71c-13.63.9-14.53 5.5-20.63 4.78-9-1.07-7.45-17.83-6.33-23.84h-5.39s-9.72 38.19 21 31.13c-1.18 6.69 6.45 17.61-.95 30.87 11.66 3.17 22.53 3.95 31.84-.06-1.63-2.19 3.34-24.39-6.39-40.36-1.91-3.11-12.15-2.59-13.15-2.52z"/><path class="cls-20" d="M162.88 199.75c.89.23 1.93.4 2.4 1.16a2.8 2.8 0 0 1 .26 1.67 1.39 1.39 0 0 1 1.46-1 1.37 1.37 0 0 1 1.19 1.26 2.3 2.3 0 0 1-.2.85 10.44 10.44 0 0 1-1 1.93c1.11.41 2 3.66 2.6 4.68 1.87-.47 6-2.08 6.4-8.71.17-3.09-.77-6.79-4.12-8.85-2.37-1.45-6.3-1.47-9-.78-2.19.56-5.7 2.76-4.06 5.32a6.88 6.88 0 0 0 4.07 2.47z"/><path class="cls-20" d="M174.56 195.53a3.28 3.28 0 0 1 3.64.86 7.1 7.1 0 0 1 .73 2.9 2.22 2.22 0 0 0 .63 1.29 2.71 2.71 0 0 0 1.68.52 37.84 37.84 0 0 1 4.4.14 4 4 0 0 1 3.34 2.41c.23.75.11 1.57.38 2.31.41 1.1 1.58 1.72 2.6 2.36a16.91 16.91 0 0 1 5.35 5.33 9.72 9.72 0 0 1 1.61 4.42c.1 1.57 1.23 3.65.93 5.19s-2 3.93-5.21 5c-5.6 1.81-7.38 2.59-12.75-.6-.64-.39-1.91-1.7-2.49-2.16a2.88 2.88 0 0 1-.92-1.45 6.08 6.08 0 0 1 .88-4.61c.8-1.4 1.89-2.64 2.71-4a5 5 0 0 0 .84-2.73 1.37 1.37 0 0 0-.37-1 1.58 1.58 0 0 0-.86-.39c-1.18-.24-2.48 0-3.55-.52a2.49 2.49 0 0 1-1.29-2.85c.21-.72.76-1.33.91-2.06a2.8 2.8 0 0 0-1.36-2.76 7.82 7.82 0 0 0-3.16-1 3.68 3.68 0 0 1-1.56-.5 2.12 2.12 0 0 1-.79-1.73c.03-2.17 1.72-3.72 3.68-4.37z"/><path class="cls-20" d="M173.55 201.12c6.75 1.46-1.77 7.85 1.8 10.91 1 .87 2.2.59 3.39.76 4.58.63 2.08 3.74 1.76 6.18 0 .37.57.44.65.09.39-1.69 1.93-3.74 1.13-5.54-.7-1.57-2.44-1.39-3.86-1.43-1.79-.06-3.76 0-3.09-3.56a13.31 13.31 0 0 1 1.09-2.33 4.41 4.41 0 0 0 .39-2.65 3.64 3.64 0 0 0-3.16-2.78c-.23 0-.33.3-.1.35zm-13.89-8.25c5.2-2.64 10.38-2.12 14.77 1.76a.31.31 0 0 0 .44-.44 11.53 11.53 0 0 0-15.36-1.57.15.15 0 0 0 .15.25z"/><path class="cls-21" d="M334.32 209.18l-2.26 4.53 5.51 2.25.59-5.21-3.84-1.57z"/><path class="cls-21" d="M337.64 194.43c-12.49 5.44-7.37 18.61.23 17.07 3.71-.76 5.58-12.67 5.58-12.67z"/><path class="cls-14" d="M341.79 192.55a6.61 6.61 0 0 0-1.47-2.12 1.89 1.89 0 0 0-2.39-.12c-.84.78-.35 2.24.51 3-.74.09-1.61-.42-2.15.08s-.26 1.06 0 1.57a6.86 6.86 0 0 0 2.56 2.93c-.63.36-1.37 1.06-1 1.68.11.17.28.29.39.47.24.4 0 .91-.24 1.32-.39.65-.82 1.28-1.27 1.89a1.11 1.11 0 0 1 1.79.31 1.91 1.91 0 0 1-.45 2 2 2 0 0 1-1 .64c-.35.08-1.86 4.76-.68 5.68 1.46 1.13 6.42.15 7.14-1.13a3.16 3.16 0 0 0 2.81 1.16 1.73 1.73 0 0 0 1.27-2.39 2.92 2.92 0 0 0 3.53-4.23c.61-.18.73-1 .58-1.63a3.81 3.81 0 0 0-2.59-2.66 1.27 1.27 0 0 0 1.17-1.25 2.63 2.63 0 0 0-.7-1.72 5.83 5.83 0 0 0-4.3-2.05c-1.77-.2-2.73-1.98-3.51-3.43z"/><path class="cls-19" d="M330.09 326.27s-7.31 3.51-8.29 4.6c0 0 14.38.65 15.5 0s-2.3-4.58-2.3-4.58zm27.19-3.97s-6.43 4.95-7.16 6.22c0 0 15.16-2.25 15.16-3.24s-3.2-4-3.2-4z"/><path d="M337.15 258.51c-.27 1.49-10.27 41 18.36 64.67l8.29-1.9s-9.65-9-14.2-25.34c-4.3-15.41-.88-16.92 1.7-25.41 2.85-9.39.73-16.21.73-16.21z" fill="#d8742a"/><path class="cls-20" d="M323.47 258.39c-4.54 10.85-12.33 47.81 4.65 68.63h8.48s-6.68-7.32-7.42-24.31 3.57-24.44 6.62-30.05 5.86-15.13 5.86-15.13z"/><path class="cls-17" d="M317.49 191.14c-2.26 7.94-3 22.62 8.29 28.53l7.55-1.84s-13.62-7.14-10.7-25.18z"/><path class="cls-9" d="M296.68 187.07l5.86-.72S301.83 211 330.27 213c21.71 1.59 23.41 42.32 23.41 42.32-7 4.71-18.74 6.14-33.79 5.06 0 0 1-29.06-1.43-37 0 .03-23.63-7.38-21.78-36.31z"/><path class="cls-21" d="M289.51 182.6c-1 1.15 3.15 2.61 7.17 4.47l5.14-.63a20.94 20.94 0 0 0 0-2.1c-.07-1.07-.6-1.69-1.21-.77s-3.22 1.24-4.44.4-5.67-2.52-6.66-1.37zm27.98 8.54c-1.89-1.86-1.39-1.74-1.39-1.74l5.75 1.3s1.27-2.81 2.34-2.89-.81 1.94-.38 2.68-1.18 2.16-1.18 2.16z"/><path class="cls-14" d="M345 195.26a8.17 8.17 0 0 1 3.36 1.23 2.52 2.52 0 0 1 .71 3.28c-.33.52.45.94.8.47a3.15 3.15 0 0 0-.25-3.87 5.3 5.3 0 0 0-4.55-1.63c-.28 0-.38.44-.07.52zm5.22 10.67a1.86 1.86 0 0 1 1.11 2.17c-.31.89-1.22 1.42-1.95 1.93a.34.34 0 0 0 .34.58 3.89 3.89 0 0 0 2.39-2.68 2.58 2.58 0 0 0-1.57-2.54c-.36-.19-.67.34-.32.54zm-13.13 5.96a7 7 0 0 0 8.59-.93c.27-.29-.1-.83-.44-.57a7.65 7.65 0 0 1-7.93 1.13c-.25-.1-.46.22-.22.37z"/><path class="cls-14" d="M350.57 197c1.52 1.45 0 3.43-1 4.67-.21.28.13.65.39.4a4.88 4.88 0 0 0 1.86-3 2.27 2.27 0 0 0-1.13-2.28c-.11-.06-.24.08-.14.17z"/><path class="cls-17" d="M181.41 14.32l-2.34-5.73L201.7 0l-20.29 14.32z"/><path class="cls-5" d="M182.55 10.79L201.7 0l-13.33 13.54-5.82-2.75zm-8.66-4.53L201.7 0l-22.63 8.59-5.18-2.33z"/><path class="cls-9" d="M182.55 10.79l-1.14 3.53 3.46-2.44-2.32-1.09z"/><path class="cls-16" d="M178.75 13.55c-5.9-1-13.92 5-10.47 11.2 1.17 2.12 7.23 1.2 6.78-1.14-.22-1.12-1.59-1.6-2.73-1.47-6.6.76-6.86 6.29-6.57 7.7 1.51 7.28 12.67 4.82 16.42 3.79"/></g></g></g></svg>