<svg id="OBJECTS" xmlns="http://www.w3.org/2000/svg" width="151.81" height="104.15"><defs><style>.cls-9{fill:#d2ebff}.cls-2{fill:#073a93}.cls-3{fill:#1858b5}.cls-4{fill:#489bff}.cls-5{fill:#063272;opacity:.45}.cls-6{fill:#e6e6e6}.cls-8{fill:#ffb5b1}</style></defs><ellipse cx="76.95" cy="91.34" rx="74.86" ry="12.81" opacity=".56" fill="#d2ebff"/><path class="cls-2" d="M72.49 62.38l25.49-3.64h22.41l20.03 3.92-34.46 17.37-33.47-17.65z"/><path class="cls-2" d="M419.14 267.06S374 242.27 368.71 250.4c-7.69 11.73 4.06 17.65 46 28.85z" transform="translate(-299.85 -186.34)"/><path class="cls-3" d="M431.57 279.45a5.28 5.28 0 0 0-2.86-6.9l-10.42-4.31-4 9.76 10.41 4.32a5.3 5.3 0 0 0 6.87-2.87z" transform="translate(-299.85 -186.34)"/><path class="cls-4" d="M417.64 269.81l7.88 3.26a3.58 3.58 0 0 1-2.74 6.62l-7.88-3.26z" transform="translate(-299.85 -186.34)"/><path class="cls-5" d="M414.93 276.36l10.42 4.31a5.28 5.28 0 0 0 6.48-2.07 5.52 5.52 0 0 1-.26.85 5.3 5.3 0 0 1-6.91 2.87L414.25 278z" transform="translate(-299.85 -186.34)"/><path class="cls-6" d="M418.38 276.52l1.66-4a.41.41 0 0 1 .52-.22.4.4 0 0 1 .22.52l-1.67 4a.39.39 0 0 1-.52.22.39.39 0 0 1-.21-.52zm2.45 1.02l1.67-4a.4.4 0 0 1 .52-.21.4.4 0 0 1 .21.52l-1.66 4a.41.41 0 0 1-.52.22.4.4 0 0 1-.22-.53zm2.7 1.11l1.66-4a.4.4 0 0 1 .52-.21.4.4 0 0 1 .22.52l-1.67 4a.39.39 0 0 1-.52.21.39.39 0 0 1-.21-.52z" transform="translate(-299.85 -186.34)"/><path class="cls-4" d="M435.48 233.56c-.7-2.38-4.15-6.42-7.22-14.69-3.19-8.61-16.78-9.53-16.78-9.53l-5.28 2.82-5.28-2.82s-13.59.92-16.78 9.53c-3.07 8.27-6.53 12.31-7.22 14.69s3.05 17.8 13.81 20h30.94c10.76-2.2 14.5-17.62 13.81-20z" transform="translate(-299.85 -186.34)"/><path d="M412.07 209.39v4.23s-1 4.72-5.58 5.51a7.2 7.2 0 0 1-5.54-5.51v-4.23z" transform="translate(-299.85 -186.34)" fill="#f49290" id="_Group_" data-name="&lt;Group&gt;"/><path id="_Path_" data-name="&lt;Path&gt;" class="cls-2" d="M395.94 201.08s-1.57-9.88 2.19-11.08c1-.33.27-3.59 6-3.63 7.81-.06 14-1.11 12.94 14.85z" transform="translate(-299.85 -186.34)"/><path class="cls-8" d="M400.89 202.18a2.7 2.7 0 1 0-2.7 2.7 2.7 2.7 0 0 0 2.7-2.7zm16.45 0a2.7 2.7 0 1 0-2.7 2.7 2.7 2.7 0 0 0 2.7-2.7z" transform="translate(-299.85 -186.34)"/><path class="cls-8" d="M415.49 197.6a4.3 4.3 0 0 1-2.68-3.59l-1.18.33a18.08 18.08 0 0 1-10-.09l-.94-.24a4.3 4.3 0 0 1-2.79 3.59l-.07 4.37a14.6 14.6 0 0 0 2.79 8 7.52 7.52 0 0 0 12.11 0 14.62 14.62 0 0 0 2.8-8v-4.36z" transform="translate(-299.85 -186.34)"/><rect class="cls-9" x="89.53" y="47.48" width="34.18" height="22.78" rx="2.87" ry="2.87"/><circle cx="106.52" cy="58.64" r="3.55" fill="#89caf7"/><path class="cls-2" d="M392.37 267.06s45.1-24.79 50.43-16.66c7.68 11.73-4.07 17.65-45.95 28.85z" transform="translate(-299.85 -186.34)"/><path class="cls-3" d="M379.94 279.45a5.28 5.28 0 0 1 2.86-6.9l10.41-4.31 4.05 9.76-10.42 4.32a5.29 5.29 0 0 1-6.9-2.87z" transform="translate(-299.85 -186.34)"/><path class="cls-4" d="M396.61 276.43l-7.88 3.26a3.58 3.58 0 0 1-2.74-6.62l7.88-3.26z" transform="translate(-299.85 -186.34)"/><path class="cls-5" d="M396.58 276.36l-10.42 4.31a5.28 5.28 0 0 1-6.48-2.07 5.52 5.52 0 0 0 .26.85 5.29 5.29 0 0 0 6.9 2.87l10.42-4.32z" transform="translate(-299.85 -186.34)"/><path class="cls-6" d="M393.13 276.52l-1.67-4a.4.4 0 0 0-.52-.22.4.4 0 0 0-.21.52l1.66 4a.4.4 0 0 0 .52.22.4.4 0 0 0 .22-.52zm-2.45 1.02l-1.67-4a.4.4 0 0 0-.52-.21.39.39 0 0 0-.21.52l1.66 4a.41.41 0 0 0 .52.22.41.41 0 0 0 .22-.53zm-2.68 1.11l-1.66-4a.4.4 0 0 0-.52-.21.39.39 0 0 0-.22.52l1.67 4a.39.39 0 0 0 .52.21.4.4 0 0 0 .21-.52z" transform="translate(-299.85 -186.34)"/><path class="cls-2" d="M323.55 249s-11.95-19-8.25-21.81 7.32 8.47 9.21 6.66-6.59-17.84-2.58-21.29 3.71 8.27 7.11 10.44-1.84-16 2.23-18.79 6 6.18 6 6.18 4.51-18 10.58-14.44-9.3 21.61-5.69 21 7.32-6.72 10.45-2.61-17.38 14.58-14.09 14.31 9.11-4.34 10.12-.71-16.64 10.18-14.78 11.44 11.06-5.87 12.51-.62-19.15 13.61-22.82 10.24z" transform="translate(-299.85 -186.34)"/><path class="cls-9" d="M322.1 256.48a62.13 62.13 0 0 0 5.53-12c.75-2.22 1.4-4.53 2-6.75.29-1 .57-2 .87-3a146.92 146.92 0 0 1 13.82-32.35l.24.13a147.11 147.11 0 0 0-13.81 32.29c-.29 1-.57 2-.86 3-.62 2.23-1.27 4.54-2 6.77a62.91 62.91 0 0 1-5.55 12.05z" transform="translate(-299.85 -186.34)"/><path class="cls-9" d="M335.14 221.18a.13.13 0 0 1-.06-.07 61.41 61.41 0 0 1-2.7-12.66.14.14 0 0 1 .12-.15.14.14 0 0 1 .15.12 61.06 61.06 0 0 0 2.69 12.58.14.14 0 0 1-.09.17.14.14 0 0 1-.11.01zm-1.68 4.96a.13.13 0 0 1 0-.18 105.91 105.91 0 0 1 11.64-7.74 10.71 10.71 0 0 1 2.45-1.05.14.14 0 0 1 .16.1.14.14 0 0 1-.1.17 9.85 9.85 0 0 0-2.38 1 106.81 106.81 0 0 0-11.61 7.72.12.12 0 0 1-.16-.02zm-2.68 8.12a55.16 55.16 0 0 1-5-8.89 69.55 69.55 0 0 1-2.39-7.14.13.13 0 0 1 .09-.16.14.14 0 0 1 .17.09 71.45 71.45 0 0 0 2.38 7.11 54.21 54.21 0 0 0 4.94 8.84.14.14 0 0 1 0 .19.12.12 0 0 1-.19-.04z" transform="translate(-299.85 -186.34)"/><path class="cls-9" d="M330.74 234.39a.14.14 0 0 1-.05-.16.13.13 0 0 1 .17-.08 2.36 2.36 0 0 0 1.21 0 20.68 20.68 0 0 0 3.19-1l.58-.22c3.05-1.11 6.24-2 9.32-2.78a.13.13 0 0 1 .16.09.13.13 0 0 1-.09.17c-3.08.82-6.26 1.67-9.3 2.78l-.58.21a19.82 19.82 0 0 1-3.23 1 2.58 2.58 0 0 1-1.35 0zm-3.27 10.72c-3.57-2.45-7.67-9.07-10.09-14a.14.14 0 0 1 .07-.18.14.14 0 0 1 .18.06c2.4 4.89 6.46 11.46 10 13.89a.13.13 0 1 1-.15.22z" transform="translate(-299.85 -186.34)"/><path class="cls-9" d="M327.7 245.21l-.09-.07a.13.13 0 0 1 0-.19.14.14 0 0 1 .19 0 2.26 2.26 0 0 0 2 .07l13-3.57a.13.13 0 0 1 .16.1.13.13 0 0 1-.09.16l-13 3.57a2.6 2.6 0 0 1-2.17-.07z" transform="translate(-299.85 -186.34)"/><path class="cls-4" d="M322 248.68s-20.68-9-19.2-13.34 10.85 2.83 11.39.27-15.56-11-14.22-16.1 7.75 4.72 11.79 4.58-10.61-12.09-8.86-16.77 8.49 1.68 8.49 1.68-6.47-17.38.54-17.92 4.58 23.11 7.2 20.55 2.23-9.7 7.14-8.09-6.06 21.9-3.5 19.81 5.05-8.76 8-6.33-8 17.85-5.73 17.85 5.8-11.12 10-7.61-8.16 22.09-13.04 21.42z" transform="translate(-299.85 -186.34)"/><path class="cls-9" d="M325 255.65a62.18 62.18 0 0 0-2.24-13c-.64-2.27-1.42-4.54-2.17-6.73-.34-1-.68-2-1-3a147.46 147.46 0 0 1-6.94-34.53h.27a146.93 146.93 0 0 0 6.93 34.48c.33 1 .67 2 1 3 .75 2.2 1.53 4.47 2.17 6.74a62.86 62.86 0 0 1 2.25 13.09z" transform="translate(-299.85 -186.34)"/><path class="cls-9" d="M315.72 219.13a.11.11 0 0 1-.08 0 60.59 60.59 0 0 1-9.41-8.91.13.13 0 1 1 .2-.18 61.52 61.52 0 0 0 9.37 8.88.14.14 0 0 1 0 .19.16.16 0 0 1-.08.02zm1.43 5.04a.13.13 0 0 1-.15-.17 106 106 0 0 1 5.21-13 10.17 10.17 0 0 1 1.43-2.25.13.13 0 0 1 .2.18 10 10 0 0 0-1.39 2.19 106.52 106.52 0 0 0-5.2 13 .14.14 0 0 1-.1.05zm2.4 8.23h-.05a55.31 55.31 0 0 1-9.14-4.52 69.19 69.19 0 0 1-6-4.54.12.12 0 0 1 0-.18.13.13 0 0 1 .19 0 70.12 70.12 0 0 0 6 4.51 54.38 54.38 0 0 0 9.09 4.5.13.13 0 0 1 .08.17.17.17 0 0 1-.17.06z" transform="translate(-299.85 -186.34)"/><path class="cls-9" d="M319.59 232.52a.13.13 0 0 1-.13-.1.14.14 0 0 1 .09-.17 2.25 2.25 0 0 0 1-.67 20.89 20.89 0 0 0 2.08-2.63l.35-.51c1.89-2.65 4-5.16 6.11-7.58a.13.13 0 1 1 .2.17c-2.07 2.42-4.21 4.93-6.09 7.57l-.35.5a21.43 21.43 0 0 1-2.1 2.67 2.62 2.62 0 0 1-1.13.75zm3.41 10.7c-4.34 0-11.47-3.13-16.26-5.82a.14.14 0 0 1 0-.18.15.15 0 0 1 .19-.06c4.76 2.68 11.84 5.79 16.12 5.79a.14.14 0 0 1 .14.14.13.13 0 0 1-.19.13z" transform="translate(-299.85 -186.34)"/><path class="cls-9" d="M323.22 243.18h-.11a.13.13 0 0 1-.11-.18.15.15 0 0 1 .15-.13c.65 0 1.2-.48 1.7-1.07l8.73-10.34a.13.13 0 1 1 .2.17L325 242a2.57 2.57 0 0 1-1.78 1.18zm-10.41 8.69l3.3 20.44a6 6 0 0 0 5.91 5h10.06a6 6 0 0 0 5.91-5l3.3-20.44z" transform="translate(-299.85 -186.34)"/><path d="M341.29 251.87h-28.48l.46 2.83h22l-2.84 17.61a6 6 0 0 1-5.91 5h5.61a6 6 0 0 0 5.91-5l2.84-17.61z" transform="translate(-299.85 -186.34)" fill="#accfe5"/><path class="cls-9" d="M341.61 246h-29.12a3 3 0 0 0-3 3 3 3 0 0 0 3 3h29.12a3 3 0 0 0 3-3 3 3 0 0 0-3-3z" transform="translate(-299.85 -186.34)"/></svg>