<svg xmlns="http://www.w3.org/2000/svg" width="320.68" height="236.83"><defs><style>.cls-2{fill:#e8f0f7}.cls-3{fill:#accce5}.cls-4{fill:#3789d3}.cls-22{opacity:.35}.cls-49,.cls-7{fill:#fff}.cls-11,.cls-13,.cls-22{mix-blend-mode:multiply}.cls-9{fill:#fca70c}.cls-10{fill:#b1affd}.cls-11{opacity:.15}.cls-12{opacity:.26}.cls-13{opacity:.62}.cls-14{fill:#d5dbda}.cls-15{fill:#efefef}.cls-16{fill:#8dd8c1}.cls-17{fill:#ffb9b0}.cls-18,.cls-22{fill:#2273ca}.cls-19{fill:#cfcfff}.cls-21{fill:#cfe1f3}.cls-26,.cls-49{opacity:.45}.cls-27{fill:#64bfa4}.cls-29{fill:#d27547}.cls-32{fill:#132838}.cls-33{fill:#53b795}.cls-39{fill:#ed9c80}.cls-40{fill:#38287c}.cls-50{fill:#f2a181}.cls-53{fill:#74aace}.cls-54{fill:#61a3c1}.cls-56{fill:#ffbe9d}.cls-57{fill:#3b2e7a}.cls-59{opacity:.3}.cls-60{fill:#19947b}.cls-61{fill:#fefefe}</style></defs><g style="isolation:isolate"><g id="Layer_2" data-name="Layer 2"><g id="OBJECTS"><path class="cls-2" d="M88 228.78c0 4.44 32.84 8.05 73.36 8.05s73.34-3.61 73.34-8.05-32.84-8.05-73.34-8.05S88 224.34 88 228.78zm.69-10.64c0 2.49-12.85 4.51-28.69 4.51s-28.69-2-28.69-4.51 12.84-4.52 28.69-4.52 28.69 2.02 28.69 4.52z"/><ellipse class="cls-2" cx="272.54" cy="219.08" rx="48.14" ry="3.58"/><path class="cls-3" d="M135.74 188.42h50.09v35.1h-50.09z"/><rect class="cls-4" x="74.23" y="68.83" width="173.64" height="124.92" rx="9.39" ry="9.39"/><rect x="79.08" y="73.35" width="163.41" height="108.38" rx="5.77" ry="5.77" fill="#fafafc"/><rect class="cls-7" x="118.1" y="79.94" width="114.34" height="76.85" rx="5.01" ry="5.01" opacity=".35"/><g style="mix-blend-mode:multiply" opacity=".25"><path class="cls-9" d="M128.97 136.08h4.98v12.5h-4.98z"/><path class="cls-10" d="M140.19 125.11h4.98v23.48h-4.98z"/><path class="cls-9" d="M151.42 127.53h4.98v21.05h-4.98z"/><path class="cls-10" d="M162.64 115.65h4.98v32.94h-4.98z"/><g class="cls-11"><path class="cls-12" d="M140.19 125.11h2.29v23.48h-2.29z"/></g><g class="cls-11"><path class="cls-12" d="M128.97 136.08h2.29v12.5h-2.29z"/></g><g class="cls-13"><path class="cls-12" d="M162.64 115.65h2.29v32.94h-2.29z"/></g><g class="cls-11"><path class="cls-12" d="M151.42 127.53h2.29v21.05h-2.29z"/></g><path class="cls-14" d="M170.26 152.03h-44.58v-47.47h.68v46.79h43.9v.68z"/><path class="cls-14" d="M130.26 130.23l-.45-.51 11.66-10.47 10.8 2.35 11.69-13.02.51.45-11.96 13.32-10.85-2.36-11.4 10.24z"/><path class="cls-14" d="M165.38 110.96l-3.29-3.17 4.25-1.14-.96 4.31z"/><path class="cls-10" d="M174.48 135.2h3.42v3.42h-3.42z"/><path class="cls-9" d="M174.48 141.19h3.42v3.42h-3.42z"/><path class="cls-15" d="M178.84 142.67h10.84v1.94h-10.84zm0-6h10.84v1.94h-10.84z"/><path class="cls-10" d="M194.59 135.2h3.42v3.42h-3.42z"/><path class="cls-9" d="M194.59 141.19h3.42v3.42h-3.42z"/><path class="cls-15" d="M198.95 142.67h10.84v1.94h-10.84zm0-6h10.84v1.94h-10.84z"/><path class="cls-16" d="M212.7 135.2h3.42v3.42h-3.42z"/><path class="cls-17" d="M212.7 141.19h3.42v3.42h-3.42z"/><path class="cls-15" d="M217.07 142.67h7.13v1.94h-7.13zm0-6h7.13v1.94h-7.13zm-41.95-34.15h49.08v.89h-49.08zm-49.44-10.96h98.52v2.04h-98.52zm49.29 13.73h49.23v.89h-49.23zm0-5.55h49.23v.89h-49.23zm0 8.33h49.23v.89h-49.23zm0 2.77h49.23v.89h-49.23zm0 2.78h49.23v.89h-49.23zm0 2.77h49.23v.89h-49.23zm0 2.78h49.23v.89h-49.23zm0 2.77h49.23v.89h-49.23zm6.03 2.78h43.2v.89H181z"/><path class="cls-18" d="M227.43 79.94H123.11a5 5 0 0 0-5 5v4.39h114.33V85a5 5 0 0 0-5.01-5.06z"/><path class="cls-19" d="M217.74 84.81a1.45 1.45 0 1 1-2.89 0 1.45 1.45 0 0 1 2.89 0z"/><circle class="cls-19" cx="222.18" cy="84.81" r="1.44"/><circle class="cls-19" cx="228.07" cy="84.81" r="1.44"/></g><rect x="87.73" y="96.94" width="114.34" height="76.85" rx="5.01" ry="5.01" style="mix-blend-mode:multiply" opacity=".55" fill="#2273ca"/><rect class="cls-7" x="90.05" y="93.95" width="114.34" height="76.85" rx="5.01" ry="5.01"/><path class="cls-17" d="M100.92 150.09h4.98v12.5h-4.98z"/><path class="cls-16" d="M112.14 139.11h4.98v23.48h-4.98z"/><path class="cls-17" d="M123.36 141.54h4.98v21.05h-4.98z"/><path class="cls-16" d="M134.59 129.66h4.98v32.94h-4.98z"/><g class="cls-11"><path class="cls-12" d="M112.14 139.11h2.29v23.48h-2.29z"/></g><g class="cls-11"><path class="cls-12" d="M100.92 150.09h2.29v12.5h-2.29z"/></g><g class="cls-13"><path class="cls-12" d="M134.59 129.66h2.29v32.94h-2.29z"/></g><g class="cls-11"><path class="cls-12" d="M123.36 141.54h2.29v21.05h-2.29z"/></g><path class="cls-14" d="M142.2 166.03H97.63v-43.22h.68v42.54h43.89v.68z"/><path class="cls-14" d="M102.21 144.23l-.46-.5 11.66-10.47 10.8 2.34 11.7-13.02.5.46-11.95 13.31-10.85-2.35-11.4 10.23z"/><path class="cls-14" d="M137.33 124.96l-3.3-3.16 4.26-1.14-.96 4.3z"/><path class="cls-16" d="M146.42 149.2h3.42v3.42h-3.42z"/><path class="cls-17" d="M146.42 155.2h3.42v3.42h-3.42z"/><path class="cls-15" d="M150.79 156.67h10.84v1.94h-10.84zm0-5.99h10.84v1.94h-10.84z"/><path class="cls-16" d="M166.54 149.2h3.42v3.42h-3.42z"/><path class="cls-17" d="M166.54 155.2h3.42v3.42h-3.42z"/><path class="cls-15" d="M170.9 156.67h10.84v1.94H170.9zm0-5.99h10.84v1.94H170.9z"/><path class="cls-16" d="M184.65 149.2h3.42v3.42h-3.42z"/><path class="cls-17" d="M184.65 155.2h3.42v3.42h-3.42z"/><path class="cls-15" d="M189.01 156.67h7.13v1.94h-7.13zm0-5.99h7.13v1.94h-7.13zm-41.95-34.16h49.08v.89h-49.08zm-49.43-10.95h98.52v2.04H97.63zm49.29 13.73h49.23v.89h-49.23zm0-5.55h49.23v.89h-49.23zm0 8.32h49.23v.89h-49.23zm0 2.78h49.23v.89h-49.23zm0 2.77h49.23v.89h-49.23zm0 2.78h49.23v.89h-49.23zm0 2.78h49.23v.89h-49.23zm0 2.77h49.23v.89h-49.23zm6.02 2.78h43.2v.89h-43.2z"/><path class="cls-18" d="M199.38 94H95.06a5 5 0 0 0-5 5v4.38h114.33V99a5 5 0 0 0-5.01-5z"/><path class="cls-21" d="M97.68 98.82a1.45 1.45 0 0 1-2.89 0 1.45 1.45 0 1 1 2.89 0zm5.89 0a1.45 1.45 0 1 1-1.44-1.45 1.44 1.44 0 0 1 1.44 1.45zm5.89 0a1.45 1.45 0 1 1-1.46-1.45 1.44 1.44 0 0 1 1.46 1.45z"/><path class="cls-22" d="M238 68h-26.81q.28 13 .45 26.05a10.32 10.32 0 0 1-.49 3.92c-.35 0-.2.09-.32.73a8.07 8.07 0 0 1-5.25 3.19.51.51 0 0 0 0 .28.65.65 0 0 0-.2.81c.12.29 1.66.69 3.75.46a9.86 9.86 0 0 0 2.32-.64 3.63 3.63 0 0 0 .85-.58 3.38 3.38 0 0 0 .79-.19l.08.08 2.4-1s-.26-1.51-.47-2.3a1.58 1.58 0 0 0-.16-.37 108.7 108.7 0 0 0 4.7-16.7c-.43 7.05-3 21.38-3.16 21.87a3.67 3.67 0 0 1-3 2.14c-.57 0-3.36-.12-3.06 1.17.08.3 1.52 1 3.62 1.1a10.18 10.18 0 0 0 2.4-.23 4.46 4.46 0 0 0 1.49-.82l.32.43 2.54-.61v-1.46a3.17 3.17 0 0 0-.54-1.54v-1.45l1.41-.17s2.83-9.14 4.17-12.25A26.9 26.9 0 0 0 227.3 86a27.46 27.46 0 0 0 .59-4.88 42.52 42.52 0 0 1 1.63-8.8 1.33 1.33 0 0 1 .24-.51 1.36 1.36 0 0 1 .93-.33c3.6-.33 5.25.29 7.5-.41 3-.92 3.28-2.27 3.43-2.34A9.44 9.44 0 0 0 238 68z"/><path class="cls-18" d="M247.87 127.92v-31c-4.63 6.06-9.22 11.49-13.85 17.55-2 2.63-9.88 11.35-4.51 14.84 1.37.89 3.76.85 5 .94 4.28.3 8.53-.88 12.69-2.06z" opacity=".35"/><path class="cls-22" d="M247.87 134.6l-2.58.2v-.15l-2 .16-.6-1.71a2.6 2.6 0 0 0-2.53-1.61 1.39 1.39 0 0 0-1.28 1.92c.1.3.4 1.12.6 1.69l-2.11.16v.15l-4.35.34c-.68 0-1.7.89-1.48 1.51v.09a.78.78 0 0 0 0 .16l3.76 10.61-.1 44.7h4.37l8.26-32.11zm-6.79-.33a1.48 1.48 0 0 1-1.42-.9.78.78 0 0 1 .72-1.08 1.46 1.46 0 0 1 1.42.9.78.78 0 0 1-.72 1.08zM96.14 116.18a22.1 22.1 0 0 0-2.58 4.33 4.29 4.29 0 0 1-2.41 2.17c-1.91.88-4 1.71-5.92 2.48v5.08c4-2.41 7.62-4.65 7.68-4.68 3.06 1.17 5.62-1.37 6.44-3.2.36-.83-.19-1.16-.21-1.55 0-.21.25-1.4.21-1.55-.24-1.07-3.12-.14-2.88-.65a3.69 3.69 0 0 1 1.2-1.79c1.41-1 2.49-2 2.48-2.43 0-.7-3.67 1.43-4.01 1.79z"/><path class="cls-21" d="M74.23 185.69v10a11 11 0 0 0 11 11h152.09a11 11 0 0 0 11-11v-10z"/><rect x="240.05" y="141.95" width="67.51" height="78.07" rx="6.95" ry="6.95" fill="#68a4dc"/><rect class="cls-4" x="246.29" y="150.12" width="57.09" height="16.04" rx="1.77" ry="1.77"/><rect class="cls-4" x="246.29" y="171.85" width="14.68" height="10.18" rx="1.77" ry="1.77"/><rect class="cls-4" x="267.5" y="171.85" width="14.68" height="10.18" rx="1.77" ry="1.77"/><rect class="cls-4" x="288.71" y="171.85" width="14.68" height="10.18" rx="1.77" ry="1.77"/><rect class="cls-4" x="246.29" y="188.21" width="14.68" height="10.18" rx="1.77" ry="1.77"/><rect class="cls-4" x="267.5" y="188.21" width="14.68" height="10.18" rx="1.77" ry="1.77"/><rect class="cls-4" x="246.29" y="204.57" width="14.68" height="10.18" rx="1.77" ry="1.77"/><rect class="cls-4" x="267.5" y="204.57" width="14.68" height="10.18" rx="1.77" ry="1.77"/><rect x="288.71" y="188.21" width="14.68" height="26.54" rx="1.77" ry="1.77" fill="#4ead8d"/><g class="cls-26"><path class="cls-3" d="M245.26 150.86a1.77 1.77 0 0 1 1.77-1.77h53.55a1.77 1.77 0 0 1 1.77 1.77v12.49a1.77 1.77 0 0 1-1.77 1.77H247"/><rect class="cls-3" x="245.26" y="170.81" width="14.68" height="10.18" rx="1.77" ry="1.77"/><rect class="cls-3" x="266.46" y="170.81" width="14.68" height="10.18" rx="1.77" ry="1.77"/><rect class="cls-3" x="287.67" y="170.81" width="14.68" height="10.18" rx="1.77" ry="1.77"/><rect class="cls-3" x="245.26" y="187.17" width="14.68" height="10.18" rx="1.77" ry="1.77"/><rect class="cls-3" x="266.46" y="187.17" width="14.68" height="10.18" rx="1.77" ry="1.77"/><rect class="cls-3" x="245.26" y="203.54" width="14.68" height="10.18" rx="1.77" ry="1.77"/><rect class="cls-3" x="266.46" y="203.54" width="14.68" height="10.18" rx="1.77" ry="1.77"/></g><rect class="cls-27" x="287.67" y="187.17" width="14.68" height="26.54" rx="1.77" ry="1.77"/><path class="cls-27" d="M288.71 213v-23a1.77 1.77 0 0 1 1.77-1.77h11.14a1.58 1.58 0 0 1 .61.12 1.76 1.76 0 0 0-1.65-1.16h-11.14a1.77 1.77 0 0 0-1.77 1.77v23a1.77 1.77 0 0 0 1.15 1.66 1.84 1.84 0 0 1-.11-.62z"/><path class="cls-22" d="M240.05 160.36l1.81 4.76h7.57s-.53 20.58-.56 24.44S252 220 252 220h4.38l-.38-33.53 6.21-17.21s4.68 23 6.61 26.9S281.14 220 281.14 220h4l-10.3-44.1-4.43-15.33-22.34-10.45-8 .79"/><path class="cls-29" d="M65.82 95.11c1.34 2.31.18 5.48 1.54 7.79.54.92 1.46 1.65 1.72 2.68a2.35 2.35 0 0 1-3.38 2.65 2.53 2.53 0 0 0-.52-.26c-.67-.2-1.27.4-1.85.79a2.82 2.82 0 0 1-2.43.43 3.62 3.62 0 0 1-2-2.43c-1-2.91-.28-6.09.61-9 .45-1.47 1.11-3.09 2.55-3.62"/><path class="cls-17" d="M97 119.75c0 .32.52.6.19 1.27-.73 1.52-3 3.61-5.71 2.65-.12 0-15 8.64-16.14 8.64s-9-7.39-11.5-16.53c-.61-2.18-.38-4.74 1.67-5.85a4.83 4.83 0 0 1 2.81 2.5c1.69 3.19 6.75 13.76 7.87 14.16 1.4-.93 8.21-3 13.73-5.3a3.71 3.71 0 0 0 2.08-1.78 17.93 17.93 0 0 1 2.29-3.58c.29-.3 3.56-2.05 3.56-1.47 0 .33-1 1.21-2.21 2a3 3 0 0 0-1.06 1.48c-.21.42 2.34-.35 2.55.53.07.13-.13 1.11-.13 1.28z"/><path class="cls-18" d="M64.88 109.66a6.68 6.68 0 0 1 4.44 3.45 13.29 13.29 0 0 1 .61 1.39c.79 2 1.88 3.84 2.67 5.85a11.85 11.85 0 0 1-3.5 1.65 7.48 7.48 0 0 1-3.25.43 1.47 1.47 0 0 1-.55-.12 1.77 1.77 0 0 1-.57-.49c-.34-.39-.67-.78-1-1.19a3.23 3.23 0 0 1-.66-1.13 3.5 3.5 0 0 1 .15-1.78"/><path d="M66.83 115.17a.68.68 0 0 0-.26-.22.45.45 0 0 0-.53.24 1.09 1.09 0 0 0-.11.62 8.2 8.2 0 0 0 .38 2.41l-.26 4.25a7.54 7.54 0 0 0 3-.44c.45-.17 1-.35 1.45-.55-.45-2.39-2.08-4.42-3.67-6.31z" fill="#7762ef"/><path class="cls-17" d="M60.24 105.44s-.06 2.66.35 2.84a10.86 10.86 0 0 0 1.72.53v5.51L55 113.21l-5.05-2.81s5.25-1.74 5.3-2.27-.29-3.47-.29-3.47M49 185.15c-2 9.52-1.05 22.61-1.5 29.78.1 0 2.73.36 2.73.36s6.21-30.23 7.34-36a6.85 6.85 0 0 0 .14-1.12c.27-4.35-3.65-4.58-5.86-1a15.51 15.51 0 0 0-1 1.95c-.12.28-.24.57-.36.88a28.58 28.58 0 0 0-1 3v.11c-.09.3-.16.61-.24.92v.07c-.16.39-.25.71-.25 1.05z"/><path class="cls-17" d="M60.72 151c-.08.79-.5 4.54-1 9-.43 3.72-.9 7.91-1.27 11.23-.28 2.49-.48 4.48-.56 5.41a12.52 12.52 0 0 1-.22 1.61c-1 4.35-4 4.61-5.78 3.6a3.85 3.85 0 0 1-.69-.48 2.29 2.29 0 0 1-.78-1.28c-.12-.89-.23-2.11-.34-3.56-.22-2.83-.41-6.47-.58-10-.2-4.35-.32-8.54-.35-10.91v-.39c0-7.25 6.63-11.89 10.77-9.64l.14.07.16.1c.47.31.63 1.39.64 2.63-.02.76-.08 1.75-.14 2.61z"/><path class="cls-17" d="M50.58 178.31l-.51-1.9a30.41 30.41 0 0 1-.63 6.63v.11c-.07.3-.15.62-.24.92v.07a5.19 5.19 0 0 0-.22 1c0 .86 1.83-3 2.25-3.86l.08-.18-.5-2zM64.93 187c-.19 10 2.89 21.7 3.71 28.94.1 0 2.51-.32 2.51-.32s.46-30.56.49-36.59a8.22 8.22 0 0 0-.06-1.16c-.49-4.39-4.06-3.64-5.44.49a18.69 18.69 0 0 0-.58 2.18c-.06.32-.12.63-.18 1q-.24 1.55-.36 3.27v.11c0 .33 0 .65-.06 1v.07c-.02.29-.02.63-.03 1.01z"/><path class="cls-17" d="M67 182.9a2.76 2.76 0 0 1-.7-.31 2 2 0 0 1-.91-1.08c-.26-.86-.58-2.06-.92-3.47V178c-.68-2.75-1.48-6.32-2.22-9.8-.92-4.27-1.75-8.42-2.17-10.77 0-.12-.4-1.84-.43-2-1.28-7.29 4.41-12 8.54-10.65l.16.06c.83.33 1.06 3.25 1.24 5.23s1.6 22.43 2 26.13a16 16 0 0 1 .07 1.66c-.17 4.58-2.84 5.58-4.66 5.04z"/><path class="cls-17" d="M65.24 179.77l-.78-1.77a33.29 33.29 0 0 1 .56 6.76v.11c0 .32 0 .65-.06 1v.07a6.69 6.69 0 0 0 0 1c.14.85 1.14-3.4 1.37-4.4a1.87 1.87 0 0 0 0-.2l-.78-1.86z"/><path d="M52.57 137s-5.34 6.79-4.8 13.62c.23 2.84.59 5.34.91 8.2 0 .41.69 6.42.51 6.42 0 0 11 3.41 21.66-1 0-.73.85-14.7-4.9-28a92.68 92.68 0 0 1-13.38.76z" fill="#16816f"/><path class="cls-18" d="M69.32 121.27c0 2-1.08 3.13-2.56 4.77a58.1 58.1 0 0 0-.81 7.52c-.08 1.5.56 2.44 0 2.57-2.14 1.86-9.84 3.37-13.37.83.37-3.14-1-10.05-2-13.57q-.21-.81-.39-1.35c-.89-2.66-2.48-11.22-1.3-11.6l1-.29c1.85-.56 4.58-1.52 4.58-1.52s1.6 4.74 5.76 5.31c2.27-.94 2.07-3.81 2.05-5.13.74.2 1.07.41 3.37 1.09.65.93.09 2.87 1.13 5.77.29.72 2.59 3.23 2.54 5.6z"/><path class="cls-17" d="M65.55 94.57s.42 5.15-.46 7.84a6.41 6.41 0 0 1-5.55 3.84c-6.14 0-7.24-8.35-7.21-8.75s9.06-3.91 9.06-3.91z"/><path class="cls-32" d="M77.25 218.82c-2.19.39-4.53-.22-5.48 0-.8.13-2.83.65-3.59 0s-.64-3.1.24-3.42a3 3 0 0 0 .56.14 6.1 6.1 0 0 0 2.59-.21 14 14 0 0 0 3.62 1.36 12.45 12.45 0 0 1 2.41.73c.82.29.88 1.18-.35 1.4zm-23.61.96c-2.19-.37-3.58-1.58-4.53-1.74-.8-.15-2.79-.53-3-1.35-.15-.61.45-3.13 1.38-3.14a3.68 3.68 0 0 0 .49.32 6.07 6.07 0 0 0 2.51.68 13.58 13.58 0 0 0 2.94 2.5 11.94 11.94 0 0 1 2 1.51c.66.62-.55 1.44-1.79 1.22z"/><path class="cls-17" d="M21.71 117.6l2-2.39 12.28 11s6-8 7.64-10.47c1.81-2.74 3.45-5.09 6.1-5.54.61.37-.21 10.21-.53 10.45-3.69 2.75-10.9 11.69-13.2 12.15-2.64.54-14.29-15.2-14.29-15.2z"/><path class="cls-18" d="M50.65 109.74s-2.51 0-3.59.92-6.23 9.06-6.23 9.06a3.63 3.63 0 0 0 1.35 2.83 7.47 7.47 0 0 0 3.71 1.61s2.59-2.58 4-3.75c.91-.73 1 1.08 1 1.08L55.5 117z"/><path class="cls-29" d="M49.13 109.84c-.14-.07-.27-.15-.4-.23a3.41 3.41 0 0 1-1.65-1.61 5.53 5.53 0 0 1 0-4 16.1 16.1 0 0 1 1.65-2 5.94 5.94 0 0 0 1-3.35 22.06 22.06 0 0 1 .27-3.58c.42-2 1-3.87 2.51-5.15 2.45-2 7.36-3.25 10-1 .49.41.58.74 1.24.81a4.84 4.84 0 0 1 2.24.65c.87.51 1.94 1.22 1.81 2.37a4.09 4.09 0 0 1-1.67 2.43 2 2 0 0 1-.94.21c-1 0-1.9-.66-2.92-.55a2 2 0 0 0-1.28.71c-.37.46-.32 1.09-.75 1.52-.69.68-1.76.62-2.57 1.06a.86.86 0 0 0-.36.29.93.93 0 0 0-.08.44v1.29c-.41-.18-.45-.76-.78-1.05a.92.92 0 0 0-1.17.08 2 2 0 0 0-.57 1.12 3.33 3.33 0 0 0 .23 1.54c.27.88 1 1.66 1.62 1.09.44.64 0 1.72 0 2.45s0 1.73.54 2.11 1.29.09 1.32 1a1.75 1.75 0 0 1-1.62 1.58 6.06 6.06 0 0 1-2.43-.43 3.83 3.83 0 0 0-2.43-.12 7.52 7.52 0 0 1-1.36.62 2.21 2.21 0 0 1-1.45-.3z"/><path class="cls-17" d="M26.82 118s-2.88-2.32-3.08-3-.24-1.31-.48-1.93a3.59 3.59 0 0 0-2-2c-.72-.3-.37-.54-1.14-.39-1.17.22-1.73 1.37-2.19 2.26-2 3.82 3.46 4.55 3.65 4.55.4 0 2.43 2.32 2.43 2.32"/><path class="cls-33" d="M17.71 116.15l2 1.32a.54.54 0 0 0 .77-.17l4.32-7.3-2.58-1.45-4.66 6.81a.55.55 0 0 0 .15.79z"/><path class="cls-16" d="M10.65 100.72l.68.46 2.75-4-.68-.46a2.3 2.3 0 0 0-3.13.81 2.28 2.28 0 0 0 .38 3.19zm-2.51 4.88l12.65 1.92 2.89-4.21-6.39-11.05-9.15 13.34z"/><path fill="#75c9ad" d="M8.94 105.78l11.85 1.74 1.15-1.68-9.97-4.47-3.03 4.41z"/><path class="cls-16" d="M26 110.59a1.62 1.62 0 0 0 2.19-.57l.51-.75a1.61 1.61 0 0 0-.26-2.24 1.62 1.62 0 0 0-2.19.57l-.52.75a1.6 1.6 0 0 0 .27 2.24z"/><path d="M26.24 107.6l-.51.75a1.59 1.59 0 0 0 .26 2.24 1.62 1.62 0 0 0 2.19-.57l.51-.75.1-.17a1.47 1.47 0 1 1-2.42-1.66 1 1 0 0 0-.13.16z" fill="#77c9ad"/><path d="M7.72 106a1 1 0 0 0 1.28-.31L17.69 93a.93.93 0 0 0-.16-1.31.94.94 0 0 0-1.28.33l-8.68 12.69a.94.94 0 0 0 .15 1.29z" fill="#b3e5d4"/><path class="cls-33" d="M17.75 92l-7.22 10.5a1 1 0 0 1-1.29.33.84.84 0 0 1-.22-.24l-1.45 2.12a.94.94 0 0 0 .15 1.29 1 1 0 0 0 1.28-.31L17.69 93a1 1 0 0 0 .06-1z"/><path d="M21.9 109.74l.82.56a2.88 2.88 0 0 0 3.91-1l.81-1.18a2.84 2.84 0 0 0-.47-4l-.82-.56a2.86 2.86 0 0 0-3.9 1l-.82 1.18a2.86 2.86 0 0 0 .47 4z" fill="#7cceb0"/><path class="cls-33" d="M21.48 105.68l-1.22 1.77a.91.91 0 0 0 .15 1.27l3.81 2.59a.89.89 0 0 0 1.23-.32l1.22-1.77a.9.9 0 0 1-1.23.32l-3.81-2.6a.89.89 0 0 1-.15-1.26z"/><path class="cls-17" d="M18.13 114.33a4 4 0 0 1 .7-3 6.48 6.48 0 0 1 .71-.77 1.11 1.11 0 0 1 .42-.28 1.36 1.36 0 0 1 .93.21 1.72 1.72 0 0 1 .76.75 1 1 0 0 1-.56 1.21s-.09 0-.1.1a.33.33 0 0 0 .07.24 1.71 1.71 0 0 1 .29 1 .57.57 0 0 1-.68.51c-.15 0-.34-.08-.39 0a.29.29 0 0 0 0 .13 1.06 1.06 0 0 1-.23.84.28.28 0 0 1-.18.11.42.42 0 0 1-.19 0 2.4 2.4 0 0 1-.68-.3"/><path class="cls-17" d="M23.72 115.21a13.8 13.8 0 0 1-.23-1.55 3.56 3.56 0 0 0-1.67-2.91.46.46 0 0 0-.27-.07.29.29 0 0 0-.22.26.7.7 0 0 0 .05.35c.12.37.64 1.06.48 1.44a4.17 4.17 0 0 0-.42 1.8c0 .55.28 1.44.93 1.53"/><path d="M9.05 86.14l2.55 6m-7.86-.66l5.21 3.91M.38 98.75l6.48.63" fill="none" stroke="#b3e5d4" stroke-linecap="round" stroke-linejoin="round" stroke-width=".75"/><path class="cls-17" d="M197.2 35.6s-2.33-1.64-2.41-2.33a16.3 16.3 0 0 0-2.23-4.05 12.62 12.62 0 0 0-3.83-1.59c-.59-.08-3.93.21-3.51.66s2.58.29 3 .54l.42.25s-.42.56-.25.91-.72.86-.38 1.45-.14.54.16 1.15c.49 1 1.75 1.56 2.08 1.29.25.59 1.21 1.8 2.1 1.72s3.08 1.95 3.08 1.95m37.3-13.65c.07 1.57 0 4.29.41 4.7s1.9.34 1.9.34-5.17 6.54-5.64 6.18-6.57-5.35-5.2-5.6 2.72-.2 2.68-.92l-.12-2.13"/><path class="cls-18" d="M238.62 58.82S228.53 60 226.21 60s-2.2-1.17-2.2-1.17a93 93 0 0 0-1-10.62c-.44-1.9-.64-2.61-1-4.42-.87-4-.83-4.79-1.75-9.76l6-4.84a3.18 3.18 0 0 0 3.15 1.88 4.58 4.58 0 0 0 4.43-2.32l8.16 5.47.77 13.27-1 10.93"/><path class="cls-17" d="M232.84 22.49a17.69 17.69 0 0 1-.71 2.32 2.62 2.62 0 0 1-2.78 1.91l-3.09.08a3.63 3.63 0 0 1-2.42-.51c-.63-.55-.64-1.48-.78-2.24-.18-1-.33-2-.44-2.94a43.39 43.39 0 0 1-.27-5.81 3.56 3.56 0 0 1 .07-.8.55.55 0 0 1 .13-.29.67.67 0 0 1 .37-.14 31.73 31.73 0 0 1 5.84-.37 6.59 6.59 0 0 1 3.93 1 7.4 7.4 0 0 1 2.09 3.54c.07.21.13.49-.05.61"/><path class="cls-39" d="M210.21 94.8a22 22 0 0 0 .61 2.69c.26.68 2.51.05 2.66-.39a20.59 20.59 0 0 0-.71-3.71"/><path class="cls-40" d="M214.27 97.67c.19.74.44 2.15.44 2.15l-2.25 1-.37-.34a4.24 4.24 0 0 1-1.25 1 9.18 9.18 0 0 1-2.18.61c-2 .21-3.41-.16-3.52-.43-.49-1.14 2.12-1.45 2.63-1.58a3.45 3.45 0 0 0 2.47-2.47c.12-.6 0-.71.3-.69a.81.81 0 0 1 .56.27 1.43 1.43 0 0 0 1.6.37 1.75 1.75 0 0 0 .8-.67 1 1 0 0 1 .77.78z"/><path class="cls-29" d="M220.16 68.57a38.48 38.48 0 0 1-11.49.28c.5 1.42 1.72 3.25 2.18 5.25 1.53 6.62 2.07 15.52 2.45 21 0 0-.73 1.41-3.09.33-3.52-8.7-9.67-26.33-9.61-30.15.07-4.87 12.22-6.05 21.13-7.25"/><path d="M235.68 58.82c2.8 2-15.52 9.75-15.52 9.75a31 31 0 0 1-6 .58 4.44 4.44 0 0 1-.46-1.15c-.1-.53 0-1.09-.14-1.62a3.78 3.78 0 0 0-1.83-2.47 8.2 8.2 0 0 0-3-1 40.12 40.12 0 0 0-6.8-.12c5.51-4.06 16.78-4.59 22-4.92 1.07 1.69 11.35.66 11.75.95z" fill="#bf6137"/><path class="cls-39" d="M216 99.43a23 23 0 0 0 .13 2.75c.14.72 2.47.49 2.69.08a20 20 0 0 0-.05-3.77"/><path class="cls-40" d="M219.52 103c.06.77.06 2.21.06 2.21l-2.39.57-.3-.4a4.15 4.15 0 0 1-1.4.76 9.49 9.49 0 0 1-2.25.22c-2-.13-3.33-.75-3.4-1-.28-1.2 2.33-1 2.87-1.09a3.47 3.47 0 0 0 2.86-2c.21-.57.09-.7.41-.62a.78.78 0 0 1 .51.35 1.42 1.42 0 0 0 1.51.65 1.68 1.68 0 0 0 .9-.52 1 1 0 0 1 .62.87z"/><path class="cls-29" d="M241.79 58.42a115.76 115.76 0 0 1-12.41.4c-1.59 0-13.58 2.25-14.73 4.28-1.88 3.34 1.23 22.88.94 36.86 0 0 1.44 1.2 4 .08.63-6.87 4.69-23.08 1.89-30.65 6.61.88 11.94 1.75 17.95-.24a4.79 4.79 0 0 0 3.09-3.28c.63-1.87.3-5.82-.73-7.45z"/><path class="cls-18" d="M226.21 29.2l-1.72.1a13.1 13.1 0 0 0-3.56.67c-1.64.61-2.79 2.13-4.12 3.32s-7.92 7.47-9.16 7.7-12.1-7.22-12.1-7.22l-2.66 2.66s11.8 10.9 15.31 10.91c1.71 0 11.13-4.94 14.14-6.87z"/><path d="M208.23 45.25c-2.42.14-13.53-8.35-14.82-9.34l-.52.52s11.8 10.9 15.31 10.91c1.43 0 8.2-3.43 12.16-5.69l1-.59-.62-3.67s-9.93 7.72-12.51 7.86z" style="mix-blend-mode:multiply" fill="#ce4a30" opacity=".25"/><path d="M196.92 60.6h27l-4.84-15.78a2.08 2.08 0 0 0-2-1.47h-23.63a1.34 1.34 0 0 0-1.29 1.74z" fill="#8bb4d1"/><path class="cls-3" d="M196.58 60.6h26.59l-4.84-15.78a2.09 2.09 0 0 0-2-1.47H192.7a1.35 1.35 0 0 0-1.29 1.74l4.64 15.12a.55.55 0 0 0 .53.39z"/><path d="M238.09 36.8a104.74 104.74 0 0 0-2 15.18c-4.72 1.83-6.64 4.55-11.26 6.61 0 0-3.64-.61-4 .77-.23.79 4.26 1.42 4.26 1.42 4.28 0 15.56-3.1 16.33-3.31s3-14.56 3.07-22.34a4.88 4.88 0 0 0-.72-3.17 4.2 4.2 0 0 0-1.39-1 19.6 19.6 0 0 0-8.61-2.17" fill="#ce4a30"/><path class="cls-17" d="M225.51 59.53a2.7 2.7 0 0 0-2.25-.71 15.58 15.58 0 0 0-1.8.14c-.27 0-.59.1-.61.4s1.32 0 2 .2a36.48 36.48 0 0 1-4.18.12 1.11 1.11 0 0 0-.48 0 .41.41 0 0 0-.27.37.53.53 0 0 0 .19.32 2.83 2.83 0 0 0 1.44.58 11.14 11.14 0 0 0 6.34-.56"/><path class="cls-18" d="M237.79 36.69c-.11 6.49-.57 9.47-.44 16-3.26.7-7.77 4.39-12.39 6.44a2.48 2.48 0 0 0 .15 1.69c.35.13 15.57-3.57 16.78-4.69s2.53-13.18 2.62-21a4.88 4.88 0 0 0-.72-3.17 4.2 4.2 0 0 0-1.39-1 19.6 19.6 0 0 0-8.61-2.17"/><path d="M210.3 51.79c.1 1.68-1.54 3.05-3.65 3.05s-3.91-1.37-4-3.05 1.54-3 3.66-3 3.89 1.32 3.99 3z" stroke="#8db7d3" stroke-miterlimit="10" fill="none" opacity=".45"/><ellipse cx="206.47" cy="51.79" rx="1.69" ry="2.44" transform="rotate(-86.47 206.467 51.793)" fill="#8db7d3"/><path d="M228.08 18.33c-.05-.24-.59-.29-1.13-.22a8.79 8.79 0 0 0-2.28.48c-.3.23-.28.4-.44.42s-.16-.15-.51-.3a4.75 4.75 0 0 0-1.72 0c-.54.07-1.05.19-1 .44a1.4 1.4 0 0 0 .21.75c.11.07.11.06.54 1a1 1 0 0 0 1.3.71c.9-.19 1-1.21 1-1.63s.13-.49.27-.51.23 0 .4.43.29 1.3 1.21 1.35c1.19.07 1.71-.34 1.88-1.11.22-1 .17-1 .26-1.14a6.13 6.13 0 0 1 .89.08v-.31a6.26 6.26 0 0 1-.88-.44zm-4.34 2.1a1 1 0 0 1-.88 1.09c-.54.06-.8-.23-1.09-.93a1.81 1.81 0 0 1-.18-1.26c.09-.17.39-.17 1.07-.21s.91-.06 1 .24a3.77 3.77 0 0 1 .08 1.07zm3.9-.58c-.11.76-.39 1.12-1.14 1.21-1.06.13-1.27-.29-1.43-.8a3.57 3.57 0 0 1-.19-1.05c0-.32.25-.36.92-.49s1.57-.28 1.7-.14a1.82 1.82 0 0 1 .14 1.27z" fill="#483a99"/><path d="M235.3 16.68a10.2 10.2 0 0 0-.3-1.61 5.07 5.07 0 0 0-2.49-3.26 7.92 7.92 0 0 0-5.64-.57c-1 .29-1.42.84-2 .82a6.19 6.19 0 0 1-1.45-.47c-4-1.46-3.36 2.5-2.93 3.58.19.48 1.11.83 1.23 1a13 13 0 0 1 .19 1.61.85.85 0 0 0 .5.59v-1.44a1.61 1.61 0 0 1 .6-1.19 3.62 3.62 0 0 1 1.45-.41 11 11 0 0 1 3 .49c.76.65.95 2.12 1.16 3 .1.41.2.68.37.67.12-1.19.54-1.22 1.25-.81a2.05 2.05 0 0 1 .61 1.61 1.71 1.71 0 0 1-1.2 1.77c-.29.06.57 1.69 1 2.09a1.83 1.83 0 0 0 .42.37 1.7 1.7 0 0 0 .49.18l.57.16a1.57 1.57 0 0 0 .8.07c.42-.12.65-.57.84-1 .31-.66.68-1.29.94-2a11.75 11.75 0 0 0 .59-5.25z" fill="#5b65b7"/><path class="cls-21" d="M313 77.51h-51l6.07-4.51V50.88a3.33 3.33 0 0 1 3.33-3.34H313a3.33 3.33 0 0 1 3.34 3.34v23.29a3.34 3.34 0 0 1-3.34 3.34z"/><path class="cls-49" d="M288.59 51.85h23.35v2.23h-23.35zm0 3.34h23.35v2.23h-23.35zm0 3.33h23.35v2.23h-23.35zm0 3.26h23.35v2.23h-23.35zm0 3.89h16.29v2.23h-16.29z"/><rect class="cls-3" x="272.09" y="51.85" width="14.67" height="17.15" rx="3.39" ry="3.39"/><path class="cls-49" d="M272.09 71.14h14.67v1.84h-14.67z"/><path class="cls-21" d="M118.22 45.64h65.1l-7.79-5.77V4.25A4.25 4.25 0 0 0 171.27 0h-53.05A4.25 4.25 0 0 0 114 4.25v37.14a4.25 4.25 0 0 0 4.22 4.25z"/><g class="cls-26"><path class="cls-7" transform="rotate(180 134.5 8.03)" d="M119.62 6.6h29.75v2.85h-29.75z"/><path class="cls-7" transform="rotate(180 134.5 12.28)" d="M119.62 10.86h29.75v2.85h-29.75z"/><path class="cls-7" transform="rotate(180 134.5 16.535)" d="M119.62 15.11h29.75v2.85h-29.75z"/><path class="cls-7" transform="rotate(180 134.5 20.68)" d="M119.62 19.25h29.75v2.85h-29.75z"/><path class="cls-7" transform="rotate(180 134.5 24.82)" d="M119.62 23.4h29.75v2.85h-29.75z"/><path class="cls-7" transform="rotate(180 134.5 32.35)" d="M119.62 30.93h29.75v2.85h-29.75z"/><path class="cls-7" transform="rotate(180 145.01 36.835)" d="M119.62 35.41h50.78v2.85h-50.78z"/></g><rect class="cls-3" x="151.71" y="6.6" width="18.69" height="21.85" rx="4.31" ry="4.31" transform="rotate(180 161.055 17.53)"/><path class="cls-49" transform="rotate(180 161.055 32.35)" d="M151.71 31.18h18.69v2.35h-18.69z"/><ellipse class="cls-2" cx="268.79" cy="230.11" rx="28.69" ry="3.02"/><path class="cls-32" d="M253.4 225.82a7.27 7.27 0 0 1-3 2.26c-1.59.72-5 1-3.1 1.68a11.24 11.24 0 0 0 5.19.07 22.48 22.48 0 0 1 3.5-.21c1.72 0 1.74-.12 1.51-2.07-.33-2.68-3.33-3.25-4.1-1.73zm31.32-.98c-.1.54.67 2.18-.7 3.39s-4.5 2.47-2.43 2.52a12.17 12.17 0 0 0 5.11-1c1.05-.52.21-1.33 1.51-1.74 1.72-.55 1.37-1.81.47-2.59-1.14-2.54-3.68-2.33-3.96-.58z"/><path class="cls-18" d="M278.13 170.23s4.12-12.11-7.57-22.09c0 0-6.26 2.5-11.28 2.8a28.35 28.35 0 0 1-6-.13s-.33 10.76-.34 16.56zM252 190.35c-.23-5.41 5.65-4.7 7.81-.66 4.48 8.37-1.65 27.64-2.46 36.76a4.67 4.67 0 0 1-3.1.2 2.21 2.21 0 0 1-.9-1c.16-11.2-1.08-29.51-1.35-35.3z"/><path class="cls-18" d="M259.64 191.17c-.68 2.21-8.17 4.54-7.56-3.51.26-3.57 1-23.28 1.12-25.18s.46-4.68 1.38-5c4.59-1.73 12.71 4.27 11.5 11.41-.8 4.74-5.08 17.7-6.44 22.28zm11.8 3.08c-1.82-5.11 4.07-6 7.41-2.87 7.82 7.37 8.12 24.74 10 33.7a6.92 6.92 0 0 1-3.42 1 1.23 1.23 0 0 1-.93-.48c-3.14-10.76-11.13-25.89-13.06-31.35z"/><path class="cls-18" d="M279.17 192.58c.2 2.3-6 7.06-8.5-.63-1.09-3.41-5.76-23.56-6.35-25.37s-.42-5.56.3-6.22c3.6-3.33 11.74-.4 13.3 6.66 1.08 4.73.83 20.78 1.25 25.56z"/><path class="cls-50" d="M247 104.36c.21-.23.42-.45.61-.7 1.49-1.89 1.7-3.57 3.07-5.77a18.84 18.84 0 0 1 1-1.91 7.89 7.89 0 0 1 2.23-1.82c.64-.34.09 1.07.09 1.07s.54-.78 1.07-.73c.2 0 .24 1.23.24 1.43a10.08 10.08 0 0 1-1.12 4.79 2.56 2.56 0 0 0-.39 1.09 2.46 2.46 0 0 0 1.3-.64 1.54 1.54 0 0 1 1.35-.39 4 4 0 0 1-.26.56 5.89 5.89 0 0 1-2.37 2.8c-.67.32-1.45.38-2.1.73-1.19.63-1.76 2.08-3 2.68"/><rect x="251.52" y="94.98" width="5.12" height="9.42" rx=".65" ry=".65" transform="rotate(22.7 254.057 99.688)" fill="#5e5dbb"/><path transform="rotate(22.7 254.196 99.738)" fill="#b4b4db" d="M252.06 95.54h4.29v8.41h-4.29z"/><path class="cls-53" d="M257.81 112a27.68 27.68 0 0 0-5.72 1c-4.07 1.23-5.47 3.11-6.88 3.89C247.94 113.4 251 106 251 106s-3.68-3-4.1-2.3-15.83 18.75-15.35 21.67c.2 1.2 2 2.39 3.56 2.34 4.37-.15 9.45-1.74 14.77-3.49 2.34-.76 3.06.89 3.06.89"/><path class="cls-54" d="M245.21 116.87s-1.94 3.91-2.52 4.17 1.41-.82 2.5-2a22.75 22.75 0 0 0 2.59-4.09 23.38 23.38 0 0 0-2.57 1.92z"/><path class="cls-50" d="M251.3 97.91a.87.87 0 0 1 .27.62 4.74 4.74 0 0 1-.07 2.59 3.76 3.76 0 0 1-1 1.33 8.15 8.15 0 0 1-1.59 1.09"/><path d="M257.9 91.41c-1 .29-1.57 1.62-1.92 2.53a14.36 14.36 0 0 0-.77 3.42 4.57 4.57 0 0 0 .17 2.41 4.67 4.67 0 0 0 .67 1 2.57 2.57 0 0 0 .48.51.74.74 0 0 0 .67.11c.32-.12.45-.5.54-.83a22.14 22.14 0 0 1 2.46-6.23" fill="#170d54"/><path class="cls-50" d="M256.76 98.25a.74.74 0 0 0-1.37-.43 4.41 4.41 0 0 0-.69 2.54c0 1 .73 1.19 1.36 1.32"/><path class="cls-53" d="M249.88 115.57c1.27-1.46 5.31-3.86 10.7-3.69 3.71.12 13.82.73 14.95 3.21.58 1.27 1.2 14.28.35 18.76-.63 3.37-2.26 11.72-2.26 13.74s1.08 2.88.58 3.47c-1.13 1.31-8.87 1.86-12.5 1.86-3.24 0-8.74-.87-9-1.9-.41-1.54.63-1.48.77-3.09s.55-12.08 0-13.79c-1.07-3.09-1.59-8.13-2.44-10.42-.71-1.72-2.42-6.72-1.15-8.15z"/><path class="cls-54" d="M273 126.09c.39.8 3 5 3 5l.11.5a18.79 18.79 0 0 1-.27 2.25c-.63 3.37-2.26 11.72-2.26 13.74s1 2.84.58 3.47c-.89 1.2-15.48 3.92-14.77.55.07-.31 12.25-9.6 12.31-9.91.57-2.67 1.06-4.59 1.3-6.54.63-4.67-.34-9.86 0-9.06z"/><path class="cls-56" d="M257.64 107.23a40 40 0 0 1-.21 4.4 6.57 6.57 0 0 1-1 .56s.59 3.68 1.52 3.41 7-3.35 7-3.35-.86-.35-.86-.69.82-7 .82-7"/><path class="cls-56" d="M261.86 91.86c-.88.24-3.22-.24-3.86.73a22 22 0 0 0-1.46 4c-.48 1.28-.79 2.65-1.14 4-.46 1.73-1.21 4.89.48 6.33a2.29 2.29 0 0 0 1.3.66c.8.14 1.59.31 2.39.45a8.05 8.05 0 0 0 3.84.08c1.64-.53 2.54-2.79 3-4.32l2.41-8.79z"/><path class="cls-57" d="M257.49 117.25s-.36 16.5-1 26.54l2.43 3.35 1.67-4.19a128 128 0 0 0-1.59-25.59z"/><path class="cls-57" d="M256.93 115.8l.06.22a4.25 4.25 0 0 0 .5 1.23l1.49.11s1-.53 1.14-1.1-1.66-1.5-1.66-1.5l-.22.08a3.24 3.24 0 0 0-1.29.94z"/><path class="cls-7" d="M264.19 110.53a6.27 6.27 0 0 1 1.7 1.72c-.77 1.76-2.5 4.87-4.4 6.29a8.67 8.67 0 0 0-3-3.78s5.17-.93 5.7-4.23zm-5.73 4.23a6.35 6.35 0 0 0-3 2.81 14.08 14.08 0 0 1 .4-5.22s1.22-1.56 1.64-1.6a8.27 8.27 0 0 0 .96 4.01z"/><path class="cls-50" d="M258.7 151.61a5.48 5.48 0 0 0-3.57 2 .4.4 0 0 0-.16.31c0 .14.2.21.35.23.86.14 1-.41 1.8-.74l1.61-.7"/><path d="M252.43 138.16l6.54 21a.75.75 0 0 1-.69 1l-13.64 1.2a1.28 1.28 0 0 1-1.15-.89l-7-20.63c-.17-.56.64-1.37 1.19-1.37l13.64-1.2a1.26 1.26 0 0 1 1.11.89z" fill="#c1eadc"/><path class="cls-16" d="M252 138.71l6.45 20.63a.75.75 0 0 1-.69 1l-13.64 1.2a1.28 1.28 0 0 1-1.15-.88l-6.44-20.63a.75.75 0 0 1 .69-1.05l13.64-1.2a1.26 1.26 0 0 1 1.14.93z"/><path class="cls-7" d="M241.09 138.04l.48 1.81 6.38-.56-.52-1.8-6.34.55z"/><path class="cls-7" d="M242.3 136.36l.63 2 3-.29-.64-2a2.08 2.08 0 0 0-2-1.46 1.25 1.25 0 0 0-.99 1.75zm.67 0a.7.7 0 0 1 .57-1 1.18 1.18 0 0 1 1.14.82.7.7 0 0 1-.58 1 1.17 1.17 0 0 1-1.1-.86z"/><path class="cls-56" d="M263.89 150.14c-1.43.3-5.24 1.44-5.64 1.63a16.42 16.42 0 0 0-2.43 1.8c-1.44 1.44-.7 2.11-1.27 4.06a1.65 1.65 0 0 0 0 .31c0 .2.28.38.56.19.15.25.59.1.8-.18 0 .2.27.32.71.08.24-.13.2-.12.75-.61a5.69 5.69 0 0 1 1.55-.95 10.29 10.29 0 0 0 1.51-.69c.58-.38 1.62-.47 2.12-2.12a1.68 1.68 0 0 1 .8-.8l2.33-1.46"/><path class="cls-53" d="M272.69 123.3c.61 2.17 3.13 17.16 3.13 17.16l-14.22 10.3 1.18 3.11s17-5.71 18.36-9.62 1.27-21.54-3.45-27.73a10.73 10.73 0 0 0-4.52-3"/><path class="cls-50" d="M258.1 155.54a10 10 0 0 0-1.1 1.06 6.84 6.84 0 0 1-1 1.12 6.52 6.52 0 0 1 .86-1.28 2.43 2.43 0 0 1 .6-.51 7.73 7.73 0 0 1 .64-.39zm-.78-.94a4.29 4.29 0 0 0-.61.74 6.24 6.24 0 0 0-.49.81 7 7 0 0 1-1 1.67c.22-.62.52-1.18.79-1.77a3.58 3.58 0 0 1 .57-.81 2.52 2.52 0 0 1 .74-.64zm-.9-.76a7.09 7.09 0 0 1-.56.76 3.11 3.11 0 0 0-.42.81l-.67 1.75a4.85 4.85 0 0 1 .46-1.84 2.54 2.54 0 0 1 .52-.82c.25-.24.47-.42.67-.66z"/><path class="cls-32" d="M267.28 102.19c-.55-.33-1-.67-1.34-.14-.2.28-.31.67-.64.77a.66.66 0 0 1-.75-.53 1.83 1.83 0 0 1 .13-1c.22-.72.44-1.44.67-2.16a3.26 3.26 0 0 0 .15-2.13 2.4 2.4 0 0 0-.68-.87 7.17 7.17 0 0 0-3.32-1.42 35.84 35.84 0 0 1-3.57-.73 4.07 4.07 0 0 1-1.36-.69 2.92 2.92 0 0 1-1-2.2 4.47 4.47 0 0 1 .7-2.34 3.42 3.42 0 0 0 .35.81 3.34 3.34 0 0 1 .65-1c.35 1.94 8.5 1.29 10.4 2.15 1.32.59 2.41 1 2.37 3.11a.78.78 0 0 0 .26.34 5.93 5.93 0 0 1 1.82 4.32c.18 2.38-1.2 5-2.55 6.9a4.93 4.93 0 0 1-1 1.21 2.64 2.64 0 0 1-1.89.42c-.59-.11-1.75-.06-1.76-.66 0-.42.91-1.19 1.16-1.53"/><path class="cls-56" d="M265.15 104.43a.89.89 0 0 0 .15.71.91.91 0 0 0 1 .13 2.57 2.57 0 0 0 1.62-2c.19-1-.36-2-1.3-1.79a1.38 1.38 0 0 0-.88 1.36"/><path class="cls-50" d="M257.64 107.59l2.62.48a3.66 3.66 0 0 1-2.65 1"/><g class="cls-59"><path class="cls-60" d="M52.46 62.78l3.5 1.76-1.75-4.29"/><path class="cls-60" d="M41.6 57a7.4 7.4 0 1 0 7.4-7.25A7.33 7.33 0 0 0 41.6 57z"/><path class="cls-61" d="M47.09 54.63v5a.53.53 0 0 0 .79.46l4.32-2.5a.53.53 0 0 0 0-.91l-4.32-2.49a.53.53 0 0 0-.79.44z"/></g><g class="cls-59"><path class="cls-60" d="M289.87 106.8l-3.5 1.76 1.75-4.3"/><path class="cls-60" d="M300.73 101a7.4 7.4 0 1 1-7.4-7.3 7.35 7.35 0 0 1 7.4 7.3z"/><path class="cls-61" d="M292.22 103.81h4.1c.4 0 .76-.64.26-.83a.89.89 0 0 0 .51-.42.4.4 0 0 0-.25-.54c.49.11.68-.61.3-.85a1 1 0 0 0 .41-.62.61.61 0 0 0-.29-.64 1.12 1.12 0 0 0-.51-.08H295a3.66 3.66 0 0 0-.26-2.55c-.14-.23-.52-.5-.81-.33s-.2.57-.19.83a2.88 2.88 0 0 1-1.59 2.65s.08 2.21.07 3.38zm-2.63-3.44h2.11v3.43h-2.11z"/></g><g class="cls-59"><path class="cls-60" d="M182.66 55.28l2.55-2.76-3.5.68"/><path class="cls-60" d="M173.2 56.09a5.37 5.37 0 1 0 5.36-5.24 5.31 5.31 0 0 0-5.36 5.24z"/><path class="cls-61" d="M177.65 58h2.75c.28 0 .51-.47.18-.62a.61.61 0 0 0 .34-.31.31.31 0 0 0-.16-.4c.32.08.45-.46.2-.63a.84.84 0 0 0 .27-.46.46.46 0 0 0-.2-.48.63.63 0 0 0-.33-.06h-1.18a2.93 2.93 0 0 0-.17-1.9c-.09-.17-.34-.37-.54-.24s-.14.43-.13.62a2.18 2.18 0 0 1-1.07 2s.05 1.64.04 2.48zm-1.76-2.53h1.42v2.55h-1.42z"/></g><g class="cls-59"><path class="cls-60" d="M207.65 18.26a7.93 7.93 0 1 0-1.8 1.65l3.06 1.64z"/><path class="cls-7" d="M198.12 11.36a1.92 1.92 0 0 1 2.73 0l.5.5.5-.5a1.93 1.93 0 1 1 2.72 2.75L202.69 16a1.92 1.92 0 0 1-2.73 0l-1.85-1.89a1.93 1.93 0 0 1 .01-2.75z"/></g></g></g></g></svg>