<svg xmlns="http://www.w3.org/2000/svg" width="59" height="59"><defs><style>.cls-1{fill:#c5e5ed}.cls-2{fill:#b6e0ce}</style></defs><g id="Layer_2" data-name="Layer 2"><g id="icons"><path class="cls-1" d="M10.73 52.27A25.87 25.87 0 0 0 27 58c1.36 0 6.27-.92 7.57-1.12L32.21 32z"/><path class="cls-1" d="M53 32H31v25.69A26 26 0 0 0 53 32z"/><path class="cls-2" d="M1 32a25.87 25.87 0 0 0 5.73 16.27l20.83-22.08L2 24.69C1.84 26 1 30.64 1 32z"/><path class="cls-2" d="M1.31 28H27V6A26 26 0 0 0 1.31 28z"/><path d="M50.38 8.62A25.88 25.88 0 0 0 32 1v26h26a25.88 25.88 0 0 0-7.62-18.38z" fill="#fff"/><path d="M32 1v26h26A26 26 0 0 0 32 1zm21 31H31L10.73 52.27A26 26 0 0 0 53 32zM1 32a25.87 25.87 0 0 0 5.73 16.27L27 28V6A26 26 0 0 0 1 32zm36-9h-2m6 0h-2m6 0h-2" fill="none" stroke="#59a6c9" stroke-miterlimit="10" stroke-width="2"/></g></g></svg>