<svg xmlns="http://www.w3.org/2000/svg" width="64" height="64"><defs><style>.cls-2{fill:#c5e5ed}.cls-3{fill:none;stroke:#59a6c9;stroke-miterlimit:10;stroke-width:2px}</style></defs><g id="Layer_2" data-name="Layer 2"><g id="icons"><path fill="#fff" d="M1 1h62v36H1z"/><path class="cls-2" d="M3 63c-1 0-2-1.34-2-3v-2l7-4h6l7 4 8-4h6l8 4 7-4h6l7 4v2c0 1.66-1 3-2 3z"/><path class="cls-3" d="M3 63c-1 0-2-1.34-2-3v-2l7-4h6l7 4 8-4h6l8 4 7-4h6l7 4v2c0 1.66-1 3-2 3z"/><path class="cls-2" d="M16 48.5c0 3.5-2 6.5-5 6.5s-5-3-5-6.5S7 43 11 43s5 2 5 5.5z"/><path class="cls-3" d="M16 48.5c0 3.5-2 6.5-5 6.5s-5-3-5-6.5S7 43 11 43s5 2 5 5.5z"/><path class="cls-2" d="M37 48.5c0 3.5-2 6.5-5 6.5s-5-3-5-6.5 1-5.5 5-5.5 5 2 5 5.5z"/><path class="cls-3" d="M37 48.5c0 3.5-2 6.5-5 6.5s-5-3-5-6.5 1-5.5 5-5.5 5 2 5 5.5z"/><path class="cls-2" d="M58 48.5c0 3.5-2 6.5-5 6.5s-5-3-5-6.5 1-5.5 5-5.5 5 2 5 5.5z"/><path class="cls-3" d="M58 48.5c0 3.5-2 6.5-5 6.5s-5-3-5-6.5 1-5.5 5-5.5 5 2 5 5.5zM21 58v3m22-3v3m20-49v30M56 1h7v7M1 15V1h51"/><path d="M8 25h8v9H8zm10-14h8v23h-8zm10 8h8v15h-8zm10-6h8v21h-8zm10-8h8v29h-8z" fill="#b6e0ce"/><path class="cls-3" d="M4 37h56M1 42V21l8-8 11 11 14-14 10 10L63 1"/></g></g></svg>