<svg xmlns="http://www.w3.org/2000/svg" width="512" height="455.8"><defs><style>.cls-1{fill:#fff}.cls-2{fill:#c5e5ed}.cls-5{fill:#59a6c9}</style></defs><g id="Layer_2" data-name="Layer 2"><g id="Layer_1-2" data-name="Layer 1"><path class="cls-1" d="M72.05 391.82h88v56h-88z"/><path class="cls-1" d="M160 391.82h96v56h-96zm96 0h96v56h-96z"/><path class="cls-1" d="M351.92 391.82h95.88v56h-95.88z"/><path class="cls-2" d="M351.92 367.83h95.88v24h-95.88z"/><path class="cls-2" d="M256 367.83h96v24h-96zm-96 0h96v24h-96z"/><path class="cls-2" d="M72.05 367.83h88v24h-88z"/><path d="M143.93 159.93a15.94 15.94 0 1 1-16 16 15.94 15.94 0 0 1 16-16z" fill="#e6e9ed"/><path d="M143.93 96v64a15.94 15.94 0 0 0-11.27 27.26L87.4 232.45A79.95 79.95 0 0 1 143.93 96z" fill="#b6e0ce"/><path class="cls-2" d="M143.93 96A80 80 0 1 1 87.4 232.45l45.26-45.26a16 16 0 1 0 11.27-27.26zm359.84-72v16H8V24A16 16 0 0 1 23.91 8h463.87a15.93 15.93 0 0 1 15.99 16z"/><path class="cls-5" d="M26.15 30a6 6 0 0 1-.06-12h.06a6 6 0 0 1 0 12zm18 0a6 6 0 0 1-.07-12h.07a6 6 0 0 1 0 12zm17.99 0a6 6 0 0 1-.06-12h.06a6 6 0 0 1 0 12zM504 455.79H8.06a8 8 0 0 1-8-8L0 40a8 8 0 0 1 8-8h495.78a8 8 0 0 1 8 8l.06 406.22a8.35 8.35 0 0 1 .16 1.6 8 8 0 0 1-8 7.97zm-487.93-16h479.78L495.78 48H16z"/><path class="cls-5" d="M8 32a8 8 0 0 1-8-8A24 24 0 0 1 24 0a8 8 0 0 1 0 16 8 8 0 0 0-8 8 8 8 0 0 1-8 8zm495.78 0a8 8 0 0 1-8-8 8 8 0 0 0-8-8 8 8 0 1 1 0-16 24 24 0 0 1 24 24 8 8 0 0 1-8 8zm-.08 48a8 8 0 0 1-8-8V48a8 8 0 1 1 16 0v24a8 8 0 0 1-8 8z"/><path class="cls-5" d="M487.71 16H23.92a8 8 0 1 1 0-16h463.79a8 8 0 1 1 0 16zM8 48a8 8 0 0 1-8-8V24a8 8 0 1 1 16 0v16a8 8 0 0 1-8 8zm495.78 0a8 8 0 0 1-8-8V24a8 8 0 0 1 16 0v16a8 8 0 0 1-8 8zm-55.94 215.88H287.92a8 8 0 1 1 0-16h159.92a8 8 0 1 1 0 16z"/><path class="cls-5" d="M287.92 263.88a8 8 0 0 1-8-8V96a8 8 0 1 1 16 0v159.88a8 8 0 0 1-8 8zm31.96 0a8 8 0 0 1-8-8v-56a8 8 0 1 1 16 0v56a8 8 0 0 1-8 8zm32.01 0a8 8 0 0 1-8-8V151.93a8 8 0 1 1 16 0v104a8 8 0 0 1-8 7.95zm63.95 0a8 8 0 0 1-8-8v-80a8 8 0 1 1 16 0v80a8 8 0 0 1-8 8zm-31.99 0a8 8 0 0 1-8-8v-40a8 8 0 0 1 16 0v40a8 8 0 0 1-8 8zm-239.85 0a88 88 0 1 1 88-88 88.06 88.06 0 0 1-88 88zM144 104a72 72 0 1 0 72 72 72.05 72.05 0 0 0-72-72z"/><path class="cls-5" d="M144 199.91a24 24 0 1 1 24-24 24 24 0 0 1-24 24zm0-32a8 8 0 1 0 8 8 8 8 0 0 0-8-7.99z"/><path class="cls-5" d="M144 167.92a8 8 0 0 1-8-8V96a8 8 0 1 1 16 0v64a8 8 0 0 1-8 7.92zm-56.58 72.53a8 8 0 0 1-5.66-13.65L127 181.57a8 8 0 1 1 11.3 11.31l-45.23 45.23a8 8 0 0 1-5.65 2.34zm360.4 55.42h-159.9a8 8 0 1 1 0-16h159.9a8 8 0 1 1 0 16zm-47.98 23.99h-64a8 8 0 0 1 0-16h64a8 8 0 1 1 0 16zm-175.93-23.99H72a8 8 0 0 1 0-16h151.91a8 8 0 0 1 0 16zm-39.99 23.99H120a8 8 0 0 1 0-16h64a8 8 0 0 1 0 16zM72 455.79a8 8 0 0 1-8-8v-80a8 8 0 0 1 16 0v80a8 8 0 0 1-8 8zm375.82 0a8 8 0 0 1-8-8v-80a8 8 0 0 1 16 0v80a8 8 0 0 1-8 8zm-95.94 0a8 8 0 0 1-8-8v-80a8 8 0 0 1 16 0v80a8 8 0 0 1-8 8zm-95.94 0a8 8 0 0 1-8-8v-80a8 8 0 0 1 16 0v80a8 8 0 0 1-8 8zm-95.94 0a8 8 0 0 1-8-8v-80a8 8 0 0 1 16 0v80a8 8 0 0 1-8 8z"/><path class="cls-5" d="M447.82 375.83H72a8 8 0 1 1 0-16h375.82a8 8 0 1 1 0 16zm0 23.99H72a8 8 0 1 1 0-16h375.82a8 8 0 1 1 0 16z"/></g></g></svg>