<svg xmlns="http://www.w3.org/2000/svg" width="512" height="296.78"><defs><style>.cls-1{fill:#ceeadd}.cls-2{fill:#89c6a8}.cls-3{fill:#59a6c9}</style></defs><g id="Layer_2" data-name="Layer 2"><g id="Capa_1" data-name="Capa 1"><path class="cls-1" d="M13.5 7.5H366a6 6 0 0 1 6 6V184a6 6 0 0 1-6 6H13.5a6 6 0 0 1-6-6V13.5a6 6 0 0 1 6-6z"/><path class="cls-1" d="M314 32.65H65.49a33.13 33.13 0 0 1-33.14 33.13v66.27a33.13 33.13 0 0 1 33.14 33.13H314a33.13 33.13 0 0 1 33.14-33.13V65.78A33.13 33.13 0 0 1 314 32.65z"/><circle class="cls-2" cx="189.73" cy="98.92" r="41.42"/><circle class="cls-2" cx="98.62" cy="98.92" r="16.57"/><circle class="cls-2" cx="280.85" cy="98.92" r="16.57"/><path class="cls-1" d="M146 106.75h352.5a6 6 0 0 1 6 6v170.53a6 6 0 0 1-6 6H146a6 6 0 0 1-6-6V112.75a6 6 0 0 1 6-6z"/><path class="cls-1" d="M446.52 131.9H198a33.13 33.13 0 0 1-33.11 33.1v66.3A33.13 33.13 0 0 1 198 264.43h248.5a33.13 33.13 0 0 1 33.13-33.13V165a33.13 33.13 0 0 1-33.11-33.1z"/><circle class="cls-2" cx="322.27" cy="198.17" r="41.42"/><circle class="cls-2" cx="231.15" cy="198.17" r="16.57"/><circle class="cls-2" cx="413.38" cy="198.17" r="16.57"/><path class="cls-3" d="M504.5 99.25h-125V7.5A7.5 7.5 0 0 0 372 0H7.5A7.5 7.5 0 0 0 0 7.5V190a7.5 7.5 0 0 0 7.5 7.5h125v91.75a7.5 7.5 0 0 0 7.5 7.5h364.5a7.5 7.5 0 0 0 7.5-7.5v-182.5a7.5 7.5 0 0 0-7.5-7.5zM15 182.53V15h349.47v84.25h-9.85V65.78a7.5 7.5 0 0 0-7.5-7.5 25.66 25.66 0 0 1-25.64-25.63 7.49 7.49 0 0 0-7.5-7.5H65.49a7.49 7.49 0 0 0-7.5 7.5 25.66 25.66 0 0 1-25.64 25.63 7.5 7.5 0 0 0-7.5 7.5v66.27a7.5 7.5 0 0 0 7.5 7.5A25.66 25.66 0 0 1 58 165.18a7.49 7.49 0 0 0 7.5 7.5h67v9.85zm289.9-83.28v-.33a24.07 24.07 0 1 0-48.14 0v.33h-18.12v-.33a48.92 48.92 0 1 0-97.83 0v.33H140a7.5 7.5 0 0 0-7.5 7.5v50.93H72.29a40.75 40.75 0 0 0-32.44-32.44V72.59a40.74 40.74 0 0 0 32.44-32.44h234.89a40.74 40.74 0 0 0 32.44 32.44v26.66zm-15 0h-18.13v-.33a9.07 9.07 0 1 1 18.14 0c.01.08.02.22.02.33zm-66.26 0H155.8v-.33a33.92 33.92 0 1 1 67.83 0c.02.08.03.22.04.33zM497 281.78H147.53V114.32h198.11a7.38 7.38 0 0 0 3 0h21.89a7.38 7.38 0 0 0 3 0H497z"/><path class="cls-3" d="M198 124.4a7.5 7.5 0 0 0-7.5 7.5 25.66 25.66 0 0 1-25.64 25.63 7.5 7.5 0 0 0-7.5 7.5v66.27a7.5 7.5 0 0 0 7.5 7.5 25.67 25.67 0 0 1 25.64 25.64 7.5 7.5 0 0 0 7.5 7.5h248.5a7.5 7.5 0 0 0 7.5-7.5 25.66 25.66 0 0 1 25.63-25.64 7.5 7.5 0 0 0 7.5-7.5V165a7.5 7.5 0 0 0-7.5-7.5A25.66 25.66 0 0 1 454 131.9a7.5 7.5 0 0 0-7.5-7.5zm274.13 47.44v52.66a40.74 40.74 0 0 0-32.44 32.44H204.82a40.73 40.73 0 0 0-32.44-32.44v-52.66a40.73 40.73 0 0 0 32.44-32.44h234.89a40.74 40.74 0 0 0 32.44 32.44z"/><path class="cls-3" d="M322.27 149.25a48.92 48.92 0 1 0 48.91 48.92 49 49 0 0 0-48.91-48.92zm0 82.83a33.92 33.92 0 1 1 33.91-33.91 34 34 0 0 1-33.91 33.91zm-91.12-57.98a24.07 24.07 0 1 0 24.07 24.07 24.09 24.09 0 0 0-24.07-24.07zm0 33.14a9.07 9.07 0 1 1 9.07-9.07 9.07 9.07 0 0 1-9.07 9.07zm182.23-33.14a24.07 24.07 0 1 0 24.07 24.07 24.09 24.09 0 0 0-24.07-24.07zm0 33.14a9.07 9.07 0 1 1 9.07-9.07 9.08 9.08 0 0 1-9.07 9.07zM98.62 74.85a24.07 24.07 0 1 0 24.06 24.07 24.1 24.1 0 0 0-24.06-24.07zm0 33.13a9.07 9.07 0 1 1 9.06-9.06 9.07 9.07 0 0 1-9.06 9.08zM405.1 23.36A42.24 42.24 0 0 1 447.26 64l-3.72-3.72a7.5 7.5 0 0 0-10.61 10.6l16.56 16.56c.18.18.37.35.56.51l.23.17.36.26.3.19.33.19.32.16.34.15.33.12.37.13.32.09.39.09.38.06h2.16c.13 0 .26 0 .39-.06l.38-.09c.11 0 .22 0 .33-.09l.37-.13.32-.12a3.49 3.49 0 0 0 .34-.15 3.18 3.18 0 0 0 .32-.16l.33-.19.3-.19c.13-.08.24-.17.36-.26l.23-.17a6.77 6.77 0 0 0 .56-.51l16.56-16.56a7.5 7.5 0 0 0-10.6-10.6l-3.81 3.8A57.25 57.25 0 0 0 405.1 8.36a7.5 7.5 0 0 0 0 15zM90.34 273.42a42.24 42.24 0 0 1-42.16-40.62l3.72 3.72a7.5 7.5 0 0 0 10.61-10.6l-16.57-16.56a6.64 6.64 0 0 0-.55-.51l-.24-.17-.35-.27-.3-.18-.33-.19c-.1-.06-.21-.1-.31-.15l-.36-.17-.3-.11-.39-.13-.3-.08-.41-.1-.34-.05c-.13 0-.26-.05-.39-.06s-.37 0-.56 0h-.91c-.13 0-.26 0-.39.06l-.33.05-.42.1-.3.08-.38.13-.31.11-.35.17-.32.15a3.37 3.37 0 0 0-.32.19l-.3.18-.36.26-.23.18c-.2.16-.38.33-.56.5l-16.56 16.56a7.5 7.5 0 0 0 10.6 10.61l3.8-3.8a57.26 57.26 0 0 0 57.17 55.7 7.5 7.5 0 0 0 0-15z"/></g></g></svg>