<svg xmlns="http://www.w3.org/2000/svg" width="64" height="64"><defs><style>.cls-1{fill:#fff}.cls-2,.cls-3{fill:none;stroke:#59a6c9;stroke-width:2px}.cls-2{stroke-miterlimit:10}.cls-3{stroke-linejoin:round}</style></defs><g id="Layer_2" data-name="Layer 2"><g id="icons"><path class="cls-1" d="M54 18c0-6-5-12-10-12h-4v11H13a12 12 0 0 0 0 24h38a12 12 0 0 0 12-12c0-5.95-4-11-9-11z"/><path class="cls-2" d="M16 17h-3a12 12 0 0 0 0 24h16"/><path class="cls-3" d="M27 49l-4-4-4 4m26 0l-4-4-4 4m-1 10l-4 4-4-4"/><path class="cls-3" d="M23 45v11H0m41-11v11h23M32 44v19"/><path d="M43.92 17a3 3 0 0 1 2.68-2.95 14.73 14.73 0 0 0-2.19-5.29 3 3 0 0 1-4.17-4.17A14.73 14.73 0 0 0 35 2.4a3 3 0 0 1-5.9 0 14.73 14.73 0 0 0-5.29 2.19 3 3 0 0 1-4.17 4.17 14.73 14.73 0 0 0-2.19 5.29 3 3 0 0 1 0 5.9 14.73 14.73 0 0 0 2.19 5.29 3 3 0 0 1 4.17 4.17 14.73 14.73 0 0 0 5.29 2.19 3 3 0 0 1 5.9 0 14.73 14.73 0 0 0 5.29-2.19 3 3 0 0 1 4.17-4.17A14.73 14.73 0 0 0 46.6 20a3 3 0 0 1-2.68-3z" fill="#b6e0ce"/><circle class="cls-1" cx="32" cy="17" r="2"/><path class="cls-3" d="M31 1h2m14 16h2m-7 11h2m-13 5h2m-13-5h2M20 6h2"/><circle class="cls-3" cx="32" cy="17" r="7"/><path class="cls-2" d="M42 6h2c5 0 10 6 10 12 5 0 9 5.05 9 11a12 12 0 0 1-12 12H35m-22-6a6 6 0 0 1 0-12"/><path class="cls-3" d="M31 41h2m-2-4h2"/></g></g></svg>