<svg xmlns="http://www.w3.org/2000/svg" width="64" height="64"><defs><style>.cls-1{fill:#c5e5ed}.cls-2{fill:none;stroke-linejoin:round;stroke:#59a6c9;stroke-width:2px}.cls-3{fill:#fff}</style></defs><g id="Layer_2" data-name="Layer 2"><g id="icons"><path class="cls-1" d="M3 52v4h58v-4"/><path class="cls-2" d="M35 56h26v-4M3 52v4h24"/><path class="cls-3" d="M1 9h62v43H1z"/><path class="cls-2" d="M22 52H1V9h21m18 0h23v43H40M8 13h14M4 17h18M4 44h14M4 40h18"/><path class="cls-1" d="M4 24h18v13H4z"/><path class="cls-2" d="M40 32h20m-16 8h16m-20 4h20"/><path class="cls-1" d="M25 4v5h12V4a3 3 0 0 0-3-3h-6a3 3 0 0 0-3 3z"/><path class="cls-3" d="M31 63l-6-11h12l-6 11z"/><path fill="#b6e0ce" d="M25 9h12v43H25z"/><path class="cls-2" d="M25 52V9h12v43M29 9v43m4-43v43m-2 11l-6-11h12l-6 11zM25 4v5h12V4a3 3 0 0 0-3-3h-6a3 3 0 0 0-3 3zm5 56h2"/><path stroke-miterlimit="10" fill="#b6e0ce" stroke="#59a6c9" stroke-width="2" d="M41 13h18v15H41z"/></g></g></svg>