<svg xmlns="http://www.w3.org/2000/svg" width="58" height="58"><defs><style>.cls-1{fill:#fff}</style></defs><g id="Layer_2" data-name="Layer 2"><g id="icons"><path class="cls-1" d="M4 1a3 3 0 0 0-3 3v23h10l-2-5a5 5 0 0 1 10 0l-2 5h10V1z"/><path d="M54 1H31v10l5-2a5 5 0 0 1 0 10l-5-2v10h26V4a3 3 0 0 0-3-3z" fill="#b6e0ce"/><path class="cls-1" d="M47 31l2 5a5 5 0 0 1-10 0l2-5H31v26h23a3 3 0 0 0 3-3V31z"/><path d="M1 31v23a3 3 0 0 0 3 3h23V47l-5 2a5 5 0 0 1 0-10l5 2V31z" fill="#c5e5ed"/><path d="M27 46v11H4a3 3 0 0 1-3-3V31h26v11m19-11h11v23a3 3 0 0 1-3 3H31V31h11m-30-4H1V4a3 3 0 0 1 3-3h23v26H16m15-15V1h23a3 3 0 0 1 3 3v23H31V16" fill="none" stroke="#59a6c9" stroke-miterlimit="10" stroke-width="2"/><path d="M26 47a5 5 0 1 1 0-6m21-9a5 5 0 1 1-6 0m-9-21a5 5 0 1 1 0 6m-21 9a5 5 0 1 1 6 0" stroke-linecap="round" fill="none" stroke="#59a6c9" stroke-miterlimit="10" stroke-width="2"/></g></g></svg>