<svg xmlns="http://www.w3.org/2000/svg" width="58" height="64"><defs><style>.cls-1{fill:#fff}.cls-2{fill:none;stroke:#59a6c9;stroke-width:2px;stroke-miterlimit:10}.cls-3{fill:#c5e5ed}</style></defs><g id="Layer_2" data-name="Layer 2"><g id="icons"><path class="cls-1" d="M1 1h56v54H1z"/><path class="cls-2" d="M1 1h56v54H1zm1 8h54M4 5h2m2 0h2m2 0h2m3-3v6m3-3h34"/><path class="cls-3" d="M6 14h46v10H6z"/><path class="cls-2" d="M52 49H36m16-4H36m-14 4H6m16-4H6"/><path fill="#b6e0ce" d="M6 26h46v16H6z"/><path class="cls-3" d="M33 41v18a4 4 0 0 1-8 0V41"/><circle class="cls-1" cx="29" cy="28" r="13"/><circle class="cls-2" cx="29" cy="28" r="13"/><path class="cls-2" d="M33 40v19a4 4 0 0 1-8 0V40m4 16v2"/><path stroke-linejoin="round" fill="none" stroke="#59a6c9" stroke-width="2" d="M35 24l-8 8-4-4"/></g></g></svg>