<svg xmlns="http://www.w3.org/2000/svg" width="356.3" height="475"><defs><style>.cls-2{fill:#59a6c9}</style></defs><g id="Layer_2" data-name="Layer 2"><g id="Layer_1-2" data-name="Layer 1"><path d="M287.24 227.39c0-17.85 13.5-32.31 30.16-32.31h.67c16.63 0 30.13 14.4 30.17 32.22.14 58.29.05 64 0 151.06 0 48.89-37.06 88.48-82.68 88.48h-98c-30 0-57.62-17.39-72.23-45.44L8 253.58l9.11-7.58c18.9-17.37 47.32-15.24 63.76 4.78l24.45 29.76.14-204.73c0-17.84 13.51-32.3 30.16-32.3 16.66 0 30.17 14.48 30.17 32.32v123.93c.4-17.47 13.74-31.48 30.14-31.48h.71c16.67 0 30.17 14.47 30.17 32.32V211c0-17.85 13.51-32.31 30.18-32.31h.07c16.66 0 30.17 14.46 30.17 32.31z" fill="#c5e5ed"/><path class="cls-2" d="M318.07 187.5h-.67a36.54 36.54 0 0 0-24.67 9.4c-5.48-15.18-19.41-26.1-35.73-26.1a37.06 37.06 0 0 0-26.5 11.41c-6.37-12.9-19.14-21.66-33.85-21.66h-.71a35 35 0 0 0-21.79 7.14V75.85c0-22.22-17.3-40.3-38.34-40.3S97.57 53.62 97.56 75.82l-.17 182.46-10.33-12.55a52.08 52.08 0 0 0-36.79-19.32A51.24 51.24 0 0 0 11.87 240l-9 7.44a8 8 0 0 0-2 9.83l87.38 167.91c16 30.68 46.36 49.82 79.3 49.82h98c49.94 0 90.62-43.35 90.67-96.54 0-24.11.05-42 .07-56.5.05-38.18.06-52.29 0-94.45-.12-22.16-17.23-40.01-38.22-40.01zm22.22 134.39c0 14.48 0 32.44-.07 56.55-.05 44.39-33.55 80.58-74.69 80.58h-98c-27 0-51.93-15.85-65.14-41.22L18.05 255.66l4.16-3.48.31-.27a35.39 35.39 0 0 1 26.62-9.56 36.22 36.22 0 0 1 25.56 13.52l24.44 29.76a8 8 0 0 0 14.16-5.07l.14-204.73c0-13.4 10.14-24.31 22.38-24.31s22.36 10.92 22.36 24.33v178.12a8 8 0 1 0 16 0v-54c0-13 9.89-23.38 21.79-23.38h.71c12.24 0 22.43 10.66 22.43 24.08v48.29a8 8 0 1 0 16 0V211c0-13.41 9.69-24.33 22-24.33S279 197.59 279 211v35.74a8 8 0 1 0 16 0v-19.35c0-13.42 10.23-23.92 22.46-23.92h.67c12.2 0 22.15 10.68 22.18 24.05.04 42.13.02 56.21-.02 94.37z"/><path class="cls-2" d="M72.19 79.3a8 8 0 0 0 8-8 55.34 55.34 0 1 1 110.68 0 8 8 0 0 0 16 0 71.32 71.32 0 1 0-142.63 0 8 8 0 0 0 7.95 8z"/></g></g></svg>