<svg xmlns="http://www.w3.org/2000/svg" width="64" height="64"><defs><style>.cls-1{fill:#fff}.cls-4,.cls-5{fill:none;stroke:#59a6c9;stroke-width:2px}.cls-4{stroke-linejoin:round}.cls-5{stroke-miterlimit:10}.cls-6{fill:#c5e5ed}</style></defs><g id="Layer_2" data-name="Layer 2"><g id="icons"><path class="cls-1" d="M20 6h43v31H20z"/><path fill="#b6e0ce" d="M22 9h38v21H22z"/><path d="M35 21v-6H8a7 7 0 0 0-7 7v15h18V21z" fill="#dcf3ea"/><circle class="cls-1" cx="12" cy="6" r="5"/><circle class="cls-4" cx="12" cy="6" r="5"/><path class="cls-5" d="M7 28v9H1V22a7 7 0 0 1 7-7h27v6H19v16h44V6H20"/><path class="cls-4" d="M22 33h38"/><path class="cls-6" d="M3 63c-1 0-2-1.34-2-3v-2l7-4h6l7 4 8-4h6l8 4 7-4h6l7 4v2c0 1.66-1 3-2 3z"/><path class="cls-5" d="M3 63c-1 0-2-1.34-2-3v-2l7-4h6l7 4 8-4h6l8 4 7-4h6l7 4v2c0 1.66-1 3-2 3z"/><path class="cls-6" d="M16 48.5c0 3.5-2 6.5-5 6.5s-5-3-5-6.5S7 43 11 43s5 2 5 5.5z"/><path class="cls-5" d="M16 48.5c0 3.5-2 6.5-5 6.5s-5-3-5-6.5S7 43 11 43s5 2 5 5.5z"/><path class="cls-6" d="M37 48.5c0 3.5-2 6.5-5 6.5s-5-3-5-6.5 1-5.5 5-5.5 5 2 5 5.5z"/><path class="cls-5" d="M37 48.5c0 3.5-2 6.5-5 6.5s-5-3-5-6.5 1-5.5 5-5.5 5 2 5 5.5z"/><path class="cls-6" d="M58 48.5c0 3.5-2 6.5-5 6.5s-5-3-5-6.5 1-5.5 5-5.5 5 2 5 5.5z"/><path class="cls-5" d="M58 48.5c0 3.5-2 6.5-5 6.5s-5-3-5-6.5 1-5.5 5-5.5 5 2 5 5.5zM21 58v3m22-3v3M12 18v2"/></g></g></svg>