<svg xmlns="http://www.w3.org/2000/svg" width="45" height="58"><defs><style>.cls-1{fill:#59a6c9}</style></defs><g id="Layer_2" data-name="Layer 2"><g id="Capa_1" data-name="Capa 1"><path class="cls-1" d="M44.45 12.19l-.77-.77-10.1-10.1-.77-.77A1.86 1.86 0 0 0 31.49 0h-29A2.46 2.46 0 0 0 0 2.46v53.08A2.46 2.46 0 0 0 2.46 58h40.08A2.46 2.46 0 0 0 45 55.54v-42a1.83 1.83 0 0 0-.55-1.35zm-3-.19H33V3.57zM43 55.54a.47.47 0 0 1-.46.46H2.46a.47.47 0 0 1-.46-.46V41h41zM2 39V2.46A.47.47 0 0 1 2.46 2h28.6a1.76 1.76 0 0 0-.06.39V14h11.61a1.32 1.32 0 0 0 .39-.06V39z"/><path class="cls-1" d="M12.08 50.36h1.22a4.2 4.2 0 0 0 1.45-.23 3.27 3.27 0 0 0 1.12-.65 3 3 0 0 0 .72-1 3.48 3.48 0 0 0 .26-1.48 2.77 2.77 0 0 0-.3-1.3 3.43 3.43 0 0 0-.81-1 3.34 3.34 0 0 0-1.13-.61 4 4 0 0 0-1.27-.21h-2.9V54h1.64zm0-5.19h1.23a2.09 2.09 0 0 1 1 .2 1.56 1.56 0 0 1 .6.49 1.68 1.68 0 0 1 .28.61 3.38 3.38 0 0 1 .07.57 3.07 3.07 0 0 1-.15 1 1.76 1.76 0 0 1-.4.65 1.41 1.41 0 0 1-.54.34 2.09 2.09 0 0 1-.6.1h-1.5zm8.27 5.19h1.22a4.2 4.2 0 0 0 1.43-.23 3.18 3.18 0 0 0 1.12-.65 3 3 0 0 0 .72-1 3.48 3.48 0 0 0 .29-1.48 2.77 2.77 0 0 0-.31-1.3 3.43 3.43 0 0 0-.81-1 3.34 3.34 0 0 0-1.13-.61 4 4 0 0 0-1.27-.21h-2.9V54h1.64v-3.64zm0-5.19h1.23a2.09 2.09 0 0 1 1 .2 1.56 1.56 0 0 1 .6.49 1.68 1.68 0 0 1 .28.61 3.38 3.38 0 0 1 .07.57 3.07 3.07 0 0 1-.15 1 1.54 1.54 0 0 1-.4.65 1.41 1.41 0 0 1-.54.34 2 2 0 0 1-.59.1h-1.5zM29.44 54h1.66v-8.95h3.01v-1.13h-7.67v1.13h3V54z"/><circle class="cls-1" cx="14" cy="19" r="1"/><circle class="cls-1" cx="14" cy="27" r="1"/><circle class="cls-1" cx="14" cy="23" r="1"/><circle class="cls-1" cx="16" cy="21" r="1"/><circle class="cls-1" cx="18" cy="19" r="1"/><circle class="cls-1" cx="16" cy="25" r="1"/><circle class="cls-1" cx="18" cy="27" r="1"/><circle class="cls-1" cx="18" cy="23" r="1"/><circle class="cls-1" cx="20" cy="21" r="1"/><circle class="cls-1" cx="22" cy="19" r="1"/><circle class="cls-1" cx="20" cy="25" r="1"/><circle class="cls-1" cx="22" cy="27" r="1"/><circle class="cls-1" cx="22" cy="23" r="1"/><circle class="cls-1" cx="24" cy="21" r="1"/><circle class="cls-1" cx="26" cy="19" r="1"/><circle class="cls-1" cx="24" cy="25" r="1"/><circle class="cls-1" cx="26" cy="27" r="1"/><circle class="cls-1" cx="26" cy="23" r="1"/><circle class="cls-1" cx="28" cy="21" r="1"/><circle class="cls-1" cx="30" cy="19" r="1"/><circle class="cls-1" cx="28" cy="25" r="1"/><circle class="cls-1" cx="30" cy="27" r="1"/><circle class="cls-1" cx="30" cy="23" r="1"/><path class="cls-1" d="M23 13a1 1 0 0 0-2 0v2H10v16h6.23l-2.09 3.49a1 1 0 0 0 .35 1.37A1 1 0 0 0 15 36a1 1 0 0 0 .86-.49L18.57 31h6.86l2.71 4.51A1 1 0 0 0 29 36a1 1 0 0 0 .51-.14 1 1 0 0 0 .35-1.38L27.77 31H34V15H23zm4 4a1 1 0 0 0 2 0h2a1 1 0 0 0 1 1v2a1 1 0 0 0 0 2v2a1 1 0 0 0 0 2v2a1 1 0 0 0-1 1h-2a1 1 0 0 0-2 0h-2a1 1 0 0 0-2 0h-2a1 1 0 0 0-2 0h-2a1 1 0 0 0-2 0h-2a1 1 0 0 0-1-1v-2a1 1 0 0 0 0-2v-2a1 1 0 0 0 0-2v-2a1 1 0 0 0 1-1h2a1 1 0 0 0 2 0h2a1 1 0 0 0 2 0h2a1 1 0 0 0 2 0z"/></g></g></svg>