<svg xmlns="http://www.w3.org/2000/svg" width="60" height="50"><defs><style>.cls-1{fill:#c5e5ed}.cls-3{fill:none;stroke:#59a6c9;stroke-miterlimit:10;stroke-width:2px}.cls-4{fill:#acddc8}</style></defs><g id="Layer_2" data-name="Layer 2"><g id="icons"><path class="cls-1" d="M1 23L7 5h46l6 18"/><path fill="#fff" d="M1 23h58v26H1z"/><path class="cls-3" d="M59 23v26H1V23L7 5h46l6 18z"/><path class="cls-4" d="M14 1h32v4H14z"/><path class="cls-3" d="M14 5V1h32v4"/><path class="cls-1" d="M12 5h36v5H12z"/><path class="cls-3" d="M12 10V5h36v5"/><path class="cls-4" d="M10 10h40v6H10z"/><path class="cls-3" d="M10 16v-6h40v6"/><path class="cls-1" d="M8 16h44v7H8z"/><path class="cls-3" d="M8 23v-7h44v7"/><path class="cls-1" d="M42 32v5a3 3 0 0 1-3 3H21a3 3 0 0 1-3-3v-5z"/><path class="cls-3" d="M42 32v5a3 3 0 0 1-3 3H21a3 3 0 0 1-3-3v-5zm-29 4h-2m38 0h-2m-24 0h14M1 23h58"/></g></g></svg>