<svg xmlns="http://www.w3.org/2000/svg" width="64" height="54"><defs><style>.cls-1{fill:#fff}.cls-4{fill:#c5e5ed}.cls-5{fill:none;stroke:#59a6c9;stroke-miterlimit:10;stroke-width:2px}</style></defs><g id="Layer_2" data-name="Layer 2"><g id="icons"><path class="cls-1" d="M1 19h62v34H1z"/><path fill="#b6e0ce" d="M32 36L1 53V19l31 17z"/><path fill="#a4cfd8" d="M53 24.48V53h10V19l-10 5.48z"/><path class="cls-4" d="M1 53h52V24.48L1 53z"/><path class="cls-5" d="M53 19h10v34H1V19h10"/><path class="cls-1" d="M53 25L32 36 11 25V1h34l8 8v16z"/><path class="cls-5" d="M63 19L1 53"/><path class="cls-4" d="M16 1h24v11H16z"/><path class="cls-5" d="M1 19l31 17M53 9h-8V1"/><path class="cls-5" d="M53 25V9l-8-8H11v24m5-10h32m-32 4h32m-32 4h32m-32 4h32m-25 4h18M18 5h2m2 0h2m2 0h2"/></g></g></svg>