<svg xmlns="http://www.w3.org/2000/svg" width="60" height="64"><defs><style>.cls-2{fill:#fff}.cls-4{fill:none;stroke:#59a6c9;stroke-linejoin:round;stroke-width:2px}</style></defs><g id="Layer_2" data-name="Layer 2"><g id="icons"><circle cx="30" cy="34" r="29" fill="#b6e0ce"/><path class="cls-2" d="M35 6h-3v4h-4V6h-3V1h10v5z"/><circle class="cls-2" cx="30" cy="34" r="24"/><path d="M30 14v20h20a20 20 0 0 0-20-20z" fill="#c5e5ed"/><path class="cls-4" d="M30 34h15M35 6h-3v4h-4V6h-3V1h10v5zm3 .12a29 29 0 1 1-16 0"/><circle class="cls-4" cx="30" cy="34" r="24"/><path class="cls-4" d="M53 10l-3 3"/><path class="cls-2" transform="rotate(-45 54.503 8.504)" d="M52.38 5.67h4.24v5.66h-4.24z"/><path class="cls-4" transform="rotate(-45 54.503 8.504)" d="M52.38 5.67h4.24v5.66h-4.24z"/><path class="cls-4" d="M7 10l3 3"/><path class="cls-2" transform="rotate(-45 5.501 8.501)" d="M2.67 6.38h5.66v4.24H2.67z"/><path class="cls-4" transform="rotate(-45 5.501 8.501)" d="M2.67 6.38h5.66v4.24H2.67z"/><circle class="cls-2" cx="30" cy="34" r="3"/><circle class="cls-4" cx="30" cy="34" r="3"/><path class="cls-4" d="M51 34h-2m-38 0H9m8-14h-2m30 28h-2m0-28h2M15 48h2m13 7v-2m0-38v-2"/></g></g></svg>