<svg xmlns="http://www.w3.org/2000/svg" width="64" height="64"><defs><style>.cls-1,.cls-4{fill:#c5e5ed}.cls-2{fill:none}.cls-2,.cls-4{stroke:#59a6c9;stroke-miterlimit:10;stroke-width:2px}</style></defs><g id="Layer_2" data-name="Layer 2"><g id="icons"><path class="cls-1" d="M18 63H3c-1 0-2-1.34-2-3v-2l7-4h6l7 4 8-4h6l8 4 7-4h6l7 4v2c0 1.66-1 3-2 3H46"/><path class="cls-2" d="M3 63c-1 0-2-1.34-2-3v-2l7-4h6l7 4 8-4h6l8 4 7-4h6l7 4v2c0 1.66-1 3-2 3z"/><path d="M16 48.5c0 3.5-2 6.5-5 6.5s-5-3-5-6.5S7 43 11 43s5 2 5 5.5z" fill="#ffc469"/><path class="cls-4" d="M16 48.5c0 3.5-2 6.5-5 6.5s-5-3-5-6.5S7 43 11 43s5 2 5 5.5z"/><path class="cls-1" d="M37 48.5c0 3.5-2 6.5-5 6.5s-5-3-5-6.5 1-5.5 5-5.5 5 2 5 5.5z"/><path class="cls-2" d="M37 48.5c0 3.5-2 6.5-5 6.5s-5-3-5-6.5 1-5.5 5-5.5 5 2 5 5.5z"/><path d="M58 48.5c0 3.5-2 6.5-5 6.5s-5-3-5-6.5 1-5.5 5-5.5 5 2 5 5.5z" fill="#dcdcdc"/><path class="cls-4" d="M58 48.5c0 3.5-2 6.5-5 6.5s-5-3-5-6.5 1-5.5 5-5.5 5 2 5 5.5z"/><path class="cls-2" d="M21 58v3m22-3v3M2 31h3l6 6 6-6h9l6 6 6-6h9l6 6 6-6h3a1 1 0 0 0 1-1V2a1 1 0 0 0-1-1H2a1 1 0 0 0-1 1v28a1 1 0 0 0 1 1z"/><path fill="#b6e0ce" d="M35.33 6.83L32 14.33h7.5l-9.17 10.84h-1.66l3.33-7.5h-7.5l9.17-10.84h1.66"/><path class="cls-2" d="M8 16h2m2 0h2m2 0h2m28 0h2m2 0h2m2 0h2"/></g></g></svg>