<svg xmlns="http://www.w3.org/2000/svg" width="64" height="46"><defs><style>.cls-1{fill:#cceadc}.cls-2,.cls-3{fill:none;stroke:#59a6c9;stroke-miterlimit:10;stroke-width:2px}.cls-3{stroke-linecap:round}.cls-4{fill:#fff}</style></defs><g id="Layer_2" data-name="Layer 2"><g id="icons"><path class="cls-1" d="M55 27a21.77 21.77 0 0 0 5 3c3 1 3 5 3 5v2H41v-2s0-4 3-5a21.77 21.77 0 0 0 5-3"/><path class="cls-2" d="M57 20.5c0 3.5-2 6.5-5 6.5s-5-3-5-6.5 1-5.5 5-5.5 5 2 5 5.5z"/><path class="cls-3" d="M55 27a21.77 21.77 0 0 0 5 3c3 1 3 5 3 5v2H41v-2s0-4 3-5a21.77 21.77 0 0 0 5-3"/><path class="cls-1" d="M15 27a21.77 21.77 0 0 0 5 3c3 1 3 5 3 5v2H1v-2s0-4 3-5a21.77 21.77 0 0 0 5-3"/><path class="cls-2" d="M17 20.5c0 3.5-2 6.5-5 6.5s-5-3-5-6.5S8 15 12 15s5 2 5 5.5z"/><path class="cls-3" d="M15 27a21.77 21.77 0 0 0 5 3c3 1 3 5 3 5v2H1v-2s0-4 3-5a21.77 21.77 0 0 0 5-3"/><path class="cls-1" d="M40 30c7 4 14 3 14 13v2H10v-2c0-10 7-9 14-13z"/><path class="cls-4" d="M36 34l-4-2-4 2-4-4 2-3h1v-4l5 1 5-1v4h1l2 3-4 4z"/><path class="cls-2" d="M40 30c7 4 14 3 14 13v2H10v-2c0-10 7-9 14-13"/><path class="cls-2" d="M36 34l-4-2-4 2-4-4 2-3 6 1 6-1 2 3-4 4zm1-11v4m-10 0v-4m4 18h2m-2-4h2"/><path class="cls-4" d="M41 10v4c-1 7-4 9-4 9a13 13 0 0 1-10 0s-3-2-4-9v-4l4-2 10 4z"/><path d="M23 10c0-6.08 2.92-9 9-9s9 2.92 9 9l-4 2-5-2-5-2z" fill="#87c6a8"/><path class="cls-2" d="M41 10v4c-1 7-4 9-4 9a13 13 0 0 1-10 0s-3-2-4-9v-4m0 0c0-6.08 2.92-9 9-9s9 2.92 9 9"/><path class="cls-2" d="M23 10l4-2 5 2 5 2 4-2"/></g></g></svg>