<svg xmlns="http://www.w3.org/2000/svg" width="46" height="46"><defs><style>.cls-2{fill:#fff}.cls-3{fill:none;stroke:#59a6c9;stroke-miterlimit:10;stroke-width:2px}</style></defs><g id="Layer_2" data-name="Layer 2"><g id="icons"><path d="M31 30c7 4 14 3 14 13v2H1v-2c0-10 7-9 14-13z" fill="#cceadc"/><path class="cls-2" d="M27 34l-4-2-4 2-4-4 2-3h1v-4l5 1 5-1v4h1l2 3-4 4z"/><path class="cls-3" d="M31 30c7 4 14 3 14 13v2H1v-2c0-10 7-9 14-13"/><path class="cls-3" d="M27 34l-4-2-4 2-4-4 2-3 6 1 6-1 2 3-4 4zm1-11v4m-10 0v-4m4 18h2m-2-4h2"/><path class="cls-2" d="M32 10v4c-1 7-4 9-4 9a13 13 0 0 1-10 0s-3-2-4-9v-4l4-2 10 4z"/><path d="M14 10c0-6.08 2.92-9 9-9s9 2.92 9 9l-4 2-5-2-5-2z" fill="#87c6a8"/><path class="cls-3" d="M32 10v4c-1 7-4 9-4 9a13 13 0 0 1-10 0s-3-2-4-9v-4m0 0c0-6.08 2.92-9 9-9s9 2.92 9 9"/><path class="cls-3" d="M14 10l4-2 5 2 5 2 4-2"/></g></g></svg>