<svg xmlns="http://www.w3.org/2000/svg" width="271.59" height="295.68"><defs><style>.cls-2{fill:#59a6c9}</style></defs><g id="Layer_2" data-name="Layer 2"><g id="Capa_1" data-name="Capa 1"><path d="M191.54 171a7.51 7.51 0 0 0 7.39 6.22h11.7v15.62h-11.7a7.52 7.52 0 0 0-7.39 6.22 80.69 80.69 0 0 1-13.68 33 7.5 7.5 0 0 0 .83 9.62L187 250l-11 11.05-8.28-8.28a7.48 7.48 0 0 0-9.62-.82 80.83 80.83 0 0 1-33 13.68 7.5 7.5 0 0 0-6.22 7.39v11.7h-15.73V273a7.49 7.49 0 0 0-6.22-7.39 80.84 80.84 0 0 1-33-13.68 7.5 7.5 0 0 0-9.63.82L46 261l-11-11 8.27-8.27a7.5 7.5 0 0 0 .83-9.62 80.77 80.77 0 0 1-13.69-33 7.5 7.5 0 0 0-7.41-6.26H11.3v-15.62H23a7.5 7.5 0 0 0 7.38-6.23 80.82 80.82 0 0 1 13.69-33 7.5 7.5 0 0 0-.83-9.62L35 120.09l11-11 8.27 8.28a7.5 7.5 0 0 0 9.63.82 80.84 80.84 0 0 1 33-13.68 7.49 7.49 0 0 0 6.22-7.39V85.37h12.14v22.55a33.84 33.84 0 0 0 33.8 33.81h7.54v28.21a7.51 7.51 0 0 0 11.92 6.06l20.68-14.89a83.37 83.37 0 0 1 2.34 9.89z" fill="#c5e5ed"/><path class="cls-2" d="M111 144.05a41 41 0 1 0 41 41 41 41 0 0 0-41-41zm0 67a26 26 0 1 1 26-26A26 26 0 0 1 111 211z"/><path class="cls-2" d="M238.69 0h-90a33 33 0 0 0-32.9 32.92v39.51H96.72a7.3 7.3 0 0 0-7.3 7.3v12.74a92.92 92.92 0 0 0-26.85 11.13l-9-9a7.31 7.31 0 0 0-10.33 0l-21.08 21.06a7.3 7.3 0 0 0 0 10.33l9 9A92.65 92.65 0 0 0 20 161.85H7.3a7.3 7.3 0 0 0-7.3 7.3V199a7.3 7.3 0 0 0 7.3 7.3H20a93.15 93.15 0 0 0 11.13 26.85l-9 9a7.28 7.28 0 0 0 0 10.32l21.07 21.08a7.31 7.31 0 0 0 10.33 0l9-9a92.62 92.62 0 0 0 26.85 11.12v12.75a7.3 7.3 0 0 0 7.3 7.3h29.8a7.3 7.3 0 0 0 7.31-7.3v-12.79a92.68 92.68 0 0 0 26.84-11.12l9 9a7.3 7.3 0 0 0 10.32 0l21.08-21.08a7.29 7.29 0 0 0 0-10.32l-9-9a92.68 92.68 0 0 0 11.12-26.84h12.74a7.3 7.3 0 0 0 7.3-7.3v-29.82a7.3 7.3 0 0 0-7.3-7.3H203.2a92.11 92.11 0 0 0-3-10l13.84-10h24.68A33 33 0 0 0 271.59 109V32.92A33 33 0 0 0 238.69 0zm-47.15 171a7.51 7.51 0 0 0 7.39 6.22h11.7v15.62h-11.7a7.52 7.52 0 0 0-7.39 6.22 80.69 80.69 0 0 1-13.68 33 7.5 7.5 0 0 0 .83 9.62L187 250l-11 11.05-8.28-8.28a7.48 7.48 0 0 0-9.62-.82 80.83 80.83 0 0 1-33 13.68 7.5 7.5 0 0 0-6.22 7.39v11.7h-15.73V273a7.49 7.49 0 0 0-6.22-7.39 80.84 80.84 0 0 1-33-13.68 7.5 7.5 0 0 0-9.63.82L46 261l-11-11 8.27-8.27a7.5 7.5 0 0 0 .83-9.62 80.77 80.77 0 0 1-13.69-33 7.5 7.5 0 0 0-7.41-6.26H11.3v-15.62H23a7.5 7.5 0 0 0 7.38-6.23 80.82 80.82 0 0 1 13.69-33 7.5 7.5 0 0 0-.83-9.62L35 120.09l11-11 8.27 8.28a7.5 7.5 0 0 0 9.63.82 80.84 80.84 0 0 1 33-13.68 7.49 7.49 0 0 0 6.22-7.39V85.37h12.14v22.55a33.84 33.84 0 0 0 33.8 33.81h7.54v28.21a7.51 7.51 0 0 0 11.92 6.06l20.68-14.89a83.37 83.37 0 0 1 2.34 9.89zm63.89-64c0 10.37-3.57 19.76-13.93 19.76h-27.77a7.51 7.51 0 0 0-4.39 1.42l-37.71 27.12v-21.07a7.5 7.5 0 0 0-7.5-7.5h-15a18.83 18.83 0 0 1-18.8-18.81l-.43-75.14A18.83 18.83 0 0 1 148.66 14h92.4c10.37 0 12.7 10.72 15.37 19.4z"/><path d="M258.86 110.92a18.83 18.83 0 0 1-18.8 18.81H212.3a7.51 7.51 0 0 0-4.39 1.42L170.2 158.3v-21.07a7.5 7.5 0 0 0-7.5-7.5h-15a18.83 18.83 0 0 1-18.8-18.81V32.78A18.83 18.83 0 0 1 147.66 14h92.4a18.83 18.83 0 0 1 18.8 18.81z" fill="#cceadc"/><path d="M189.5 67.61a5.16 5.16 0 0 1 3.87-1.61q5.94 0 9.54-2.79t3.6-8.64a9.7 9.7 0 0 0-3.24-7.47 11.53 11.53 0 0 0-8.1-3 12.81 12.81 0 0 0-8.73 3.33 6.62 6.62 0 0 1-4.5 2 4.77 4.77 0 0 1-3.06-1.08 5 5 0 0 1-.63-8 23 23 0 0 1 7.6-5.18 23.7 23.7 0 0 1 9.32-1.84 22.65 22.65 0 0 1 11.16 2.79 21.2 21.2 0 0 1 8 7.69 20.39 20.39 0 0 1 3 10.76q0 8.64-4.95 13.68a22.64 22.64 0 0 1-13.14 6.3q-.45.18-.45.45v3.33a5.39 5.39 0 0 1-1.53 3.91 5.53 5.53 0 0 1-7.74 0 5.39 5.39 0 0 1-1.52-3.87v-6.84a5.41 5.41 0 0 1 1.5-3.92zm-.59 38a5.41 5.41 0 0 1-1.39-4V100a4.86 4.86 0 0 1 5.4-5.4h1.17a4.87 4.87 0 0 1 5.4 5.4v1.53a4.88 4.88 0 0 1-5.4 5.4h-1.17a5.43 5.43 0 0 1-4.01-1.36z" stroke="#59a6c9" stroke-miterlimit="10" stroke-width="2" fill="#59a6c9"/></g></g></svg>