<svg xmlns="http://www.w3.org/2000/svg" width="409.56" height="512"><defs><style>.cls-4{fill:#59a6c9}</style></defs><g id="Layer_2" data-name="Layer 2"><g id="Layer_1-2" data-name="Layer 1"><path d="M298.64 93.91h51.2A17.11 17.11 0 0 1 366.9 111v274.48a17.1 17.1 0 0 1-5 12.07l-66.79 66.79a17.07 17.07 0 0 1-12.07 5H59.73a17.13 17.13 0 0 1-17.07-17.07V111a17.12 17.12 0 0 1 17.07-17.09z" fill="#cceadc"/><path d="M162.12 51.24a42.66 42.66 0 0 1 85.32 0h34.14a17.12 17.12 0 0 1 17.06 17.07v34.13a17.11 17.11 0 0 1-17.06 17.06H128a17.12 17.12 0 0 1-17.07-17.06V68.31A17.12 17.12 0 0 1 128 51.24z" fill="#c5e5ed"/><path d="M290.11 467.8v-66.72a8.54 8.54 0 0 1 8.53-8.54h66.73z" fill="#87c6a8"/><path class="cls-4" d="M51.19 512h307.18a51.24 51.24 0 0 0 51.19-51.19V102.44a51.25 51.25 0 0 0-51.19-51.2h-57.85a25.5 25.5 0 0 0-18.94-8.53h-26.31a51.2 51.2 0 0 0-101 0H128a25.51 25.51 0 0 0-19 8.53H51.19A51.25 51.25 0 0 0 0 102.44v358.37A51.24 51.24 0 0 0 51.19 512zm307.18-128h-59.73a17.06 17.06 0 0 0-17.06 17.07v59.73H59.73a8.54 8.54 0 0 1-8.54-8.54V111a8.53 8.53 0 0 1 8.54-8.53h42.66A25.6 25.6 0 0 0 128 128h153.58a25.6 25.6 0 0 0 25.59-25.6h42.67a8.53 8.53 0 0 1 8.53 8.53zm-12.07 17.08l-47.66 47.66v-47.66zM128 59.78h34.13a8.53 8.53 0 0 0 8.53-8.54 34.13 34.13 0 1 1 68.26 0 8.53 8.53 0 0 0 8.53 8.54h34.14a8.53 8.53 0 0 1 8.53 8.53v34.13a8.53 8.53 0 0 1-8.53 8.53H128a8.53 8.53 0 0 1-8.54-8.53V68.31a8.53 8.53 0 0 1 8.54-8.53zM17.06 102.44a34.13 34.13 0 0 1 34.13-34.13h51.2v17.06H59.73A25.6 25.6 0 0 0 34.13 111v341.3a25.6 25.6 0 0 0 25.6 25.6H283a25.41 25.41 0 0 0 10.24-2.18c.16-.07.29-.17.44-.23a25.8 25.8 0 0 0 7.4-5.12l66.8-66.8a25.61 25.61 0 0 0 5.05-7.35c.09-.18.2-.33.27-.51a25.4 25.4 0 0 0 2.18-10.23V111a25.6 25.6 0 0 0-25.6-25.6h-42.61V68.31h51.2a34.13 34.13 0 0 1 34.13 34.13v358.37a34.13 34.13 0 0 1-34.13 34.13H51.19a34.13 34.13 0 0 1-34.13-34.13z"/><path class="cls-4" d="M162.12 93.91h85.32a8.54 8.54 0 1 0 0-17.07h-85.32a8.54 8.54 0 0 0 0 17.07zm-17.07 127.98a8.53 8.53 0 0 0-8.53 8.53V239h-51.2v-51.2h25.6a8.53 8.53 0 0 0 0-17.06h-25.6a17.06 17.06 0 0 0-17.06 17.06V239a17.06 17.06 0 0 0 17.06 17h51.2a17.07 17.07 0 0 0 17.07-17v-8.54a8.53 8.53 0 0 0-8.54-8.57zm-8.53 68.26h-51.2a17.06 17.06 0 0 0-17.06 17.07v51.19a17.06 17.06 0 0 0 17.06 17.07h51.2a17.07 17.07 0 0 0 17.07-17.07v-51.19a17.07 17.07 0 0 0-17.07-17.07zm-51.2 68.26v-51.19h51.2v51.19zm93.86-153.58h42.67a8.54 8.54 0 0 0 0-17.07h-42.67a8.54 8.54 0 0 0 0 17.07zm153.59-17.07H256a8.54 8.54 0 1 0 0 17.07h76.79a8.54 8.54 0 0 0 0-17.07zM179.18 239h85.33a8.54 8.54 0 0 0 0-17.07h-85.33a8.54 8.54 0 0 0 0 17.07zm153.59-17.11h-34.13a8.54 8.54 0 0 0 0 17.07h34.13a8.54 8.54 0 0 0 0-17.07zM179.18 324.28h42.67a8.53 8.53 0 1 0 0-17.06h-42.67a8.53 8.53 0 0 0 0 17.06zm153.59-17.06H256a8.53 8.53 0 1 0 0 17.06h76.79a8.53 8.53 0 1 0 0-17.06zm-68.26 34.13h-85.33a8.53 8.53 0 0 0 0 17.06h85.33a8.53 8.53 0 1 0 0-17.06zm68.26 0h-34.13a8.53 8.53 0 1 0 0 17.06h34.13a8.53 8.53 0 1 0 0-17.06z"/><path class="cls-4" d="M155.18 157.21l-36.82 51.52-9.94-9.94a8.53 8.53 0 0 0-12.06 12.07l17.06 17.06a8.49 8.49 0 0 0 6 2.5h.71a8.48 8.48 0 0 0 6.23-3.54l42.66-59.73a8.53 8.53 0 1 0-13.87-9.92z"/></g></g></svg>